<svg width="150" height="50" viewBox="0 0 150 50" fill="none" xmlns="http://www.w3.org/2000/svg">
<g clip-path="url(#clip0_305_50)">
<mask id="mask0_305_50" style="mask-type:luminance" maskUnits="userSpaceOnUse" x="2" y="13" width="146" height="24">
<path d="M148 13H2V37H148V13Z" fill="white"/>
</mask>
<g mask="url(#mask0_305_50)">
<path d="M36.0083 24.8272C36.0083 27.748 38.1593 29.6968 40.7669 29.6968C42.182 29.6999 43.5698 29.3035 44.7754 28.552V31.3888C44.2335 31.7296 42.6055 32.3488 40.7882 32.3488C36.5478 32.3416 33.1901 29.08 33.1901 24.8272C33.1901 20.5744 36.5478 17.32 40.7882 17.32C42.6055 17.32 44.2335 17.9344 44.7754 18.28V21.1C43.5688 20.3514 42.1813 19.9567 40.7669 19.96C38.1593 19.96 36.0083 21.9064 36.0083 24.8272ZM57.2529 25V32.1304H54.6499V25.8424C54.6499 24.5944 54.1057 23.6632 52.7072 23.6632C51.3513 23.6632 50.5586 24.5296 50.5586 26.0968V32.1304H47.9557V16.6768H50.5586V23.3032C50.7456 22.8232 51.4767 21.3328 53.6679 21.3328C55.9183 21.3328 57.2529 22.6888 57.2529 25ZM71.4056 29.908V32.1304H68.0455C67.9908 32.1337 67.9362 32.1255 67.8848 32.1063C67.8335 32.087 67.7866 32.0572 67.7471 32.0186C67.7078 31.98 67.6768 31.9335 67.656 31.8821C67.6352 31.8307 67.6252 31.7755 67.6267 31.72V29.824C67.2717 31.072 66.3134 32.3416 64.3139 32.3416C61.5997 32.3416 59.6381 30.2896 59.6381 26.8384C59.6381 23.344 61.7867 21.3328 64.4582 21.3328C66.9215 21.3328 67.4232 23.3872 67.4232 23.3872V21.5464H70.0261V29.908H71.4056ZM67.5012 26.86C67.5012 24.8704 66.5547 23.62 64.9977 23.62C63.4951 23.62 62.3475 24.7432 62.3475 26.8384C62.3475 28.9336 63.294 30.0568 64.8723 30.0568C66.479 30.0568 67.5012 28.9984 67.5012 26.86ZM77.3805 21.9688V32.1304H74.7776V23.7688H72.8846V21.5464H76.9735C77.0282 21.5446 77.0828 21.5545 77.1335 21.5752C77.1843 21.5959 77.2302 21.6272 77.2686 21.6669C77.3069 21.7066 77.3365 21.7539 77.3559 21.8059C77.3751 21.8579 77.3836 21.9134 77.3805 21.9688ZM77.2977 19.3432H74.4794V16.6768H77.2977V19.3432ZM80.4212 21.5464H82.9886V23.4304C83.0738 23.1544 83.6985 21.3328 86.1405 21.3328C88.3956 21.3328 89.7325 22.6888 89.7325 24.9952V32.1304H87.1296V25.8424C87.1296 24.5944 86.5877 23.6632 85.1893 23.6632C83.831 23.6632 83.0383 24.5296 83.0383 26.0968V32.1304H80.4354L80.4212 21.5464ZM103.883 29.908V32.1304H100.523C100.468 32.1337 100.413 32.1255 100.362 32.1063C100.311 32.087 100.264 32.0572 100.224 32.0186C100.185 31.98 100.154 31.9335 100.133 31.8821C100.112 31.8307 100.103 31.7755 100.104 31.72V29.824C99.749 31.072 98.7907 32.3416 96.7912 32.3416C94.077 32.3416 92.1154 30.2896 92.1154 26.8384C92.1154 23.344 94.264 21.3328 96.9379 21.3328C99.4012 21.3328 99.9005 23.3872 99.9005 23.3872V21.5464H102.503V29.908H103.883ZM99.9786 26.86C99.9786 24.8704 99.032 23.62 97.475 23.62C95.9724 23.62 94.8248 24.7432 94.8248 26.8384C94.8248 28.9336 95.7831 30.0568 97.3614 30.0568C98.9563 30.0568 99.9786 28.9984 99.9786 26.86ZM109.207 17.32V32.1304H106.59V18.8992H104.962V16.6768H108.573C108.656 16.6758 108.739 16.6918 108.817 16.7238C108.894 16.7558 108.964 16.8031 109.023 16.863C109.083 16.923 109.129 16.9942 109.161 17.0727C109.192 17.1512 109.208 17.2353 109.207 17.32ZM113.895 37H111.292V34.7776H113.216C113.904 34.7776 114.219 34.5664 114.467 33.9304L115.241 31.9408L111.223 21.5464H114.124L116.566 29.0176L119.093 21.5464H121.995L116.86 34.9456C116.318 36.364 115.419 37 113.895 37ZM123.44 31.4536V28.8928C123.795 29.1328 125.234 30.0928 126.843 30.0928C128.074 30.0928 128.615 29.7328 128.615 29.0344C128.615 26.9392 123.294 28.4848 123.294 24.5056C123.294 22.7056 124.796 21.328 127.553 21.328C129.074 21.328 130.156 21.7312 130.579 21.9856V24.52C130.056 24.1792 129.013 23.5024 127.593 23.5024C126.363 23.5024 125.904 23.884 125.904 24.4768C125.904 26.1904 131.204 25.0048 131.204 28.9024C131.204 31.0192 129.472 32.3512 126.945 32.3512C125.284 32.3416 123.921 31.7704 123.44 31.4536ZM137.446 21.9688V32.1304H134.843V23.7688H132.95V21.5464H137.042C137.096 21.5446 137.151 21.5544 137.201 21.5752C137.252 21.596 137.298 21.6272 137.336 21.667C137.374 21.7067 137.404 21.7541 137.422 21.8061C137.442 21.858 137.45 21.9135 137.446 21.9688ZM137.364 19.3432H134.545V16.6768H137.364V19.3432ZM140.236 31.4536V28.8928C140.589 29.1328 142.03 30.0928 143.637 30.0928C144.869 30.0928 145.411 29.7328 145.411 29.0344C145.411 26.9392 140.09 28.4848 140.09 24.5056C140.09 22.7056 141.592 21.328 144.349 21.328C145.873 21.328 146.952 21.7312 147.375 21.9856V24.52C146.502 23.8881 145.464 23.5339 144.391 23.5024C143.159 23.5024 142.7 23.884 142.7 24.4768C142.7 26.1904 148.002 25.0048 148.002 28.9024C148.002 31.0192 146.27 32.3512 143.743 32.3512C142.084 32.3416 140.714 31.7704 140.236 31.4536Z" fill="#FF5300"/>
<path d="M13.8316 13C14.0966 13 14.3971 13.0336 14.3971 13.0336C13.5079 14.1152 12.9721 15.4504 12.8637 16.8544C11.1884 17.1387 9.64595 17.9572 8.46046 19.1911C7.27498 20.425 6.50811 22.01 6.27127 23.716C4.74028 23.884 3.00816 24.5944 2.01195 25.6096C1.77532 18.6448 7.03794 13 13.8316 13ZM15.5353 33.9232C15.2219 33.9702 14.9055 33.9934 14.5888 33.9928C14.042 33.9862 13.4964 33.9405 12.956 33.856C12.5338 34.887 11.9767 35.8558 11.2996 36.736C9.17591 36.261 7.22237 35.2015 5.65359 33.6739C4.08483 32.1462 2.96154 30.2097 2.40712 28.0768C3.47431 26.7928 5.93999 26.0488 7.47098 26.0488C10.7365 26.0488 12.4686 27.8056 13.0696 30.544C11.1032 30.004 9.93665 28.888 9.16997 27.232C8.72191 27.067 8.24811 26.9857 7.77149 26.992C7.34142 26.9902 6.91388 27.0591 6.50553 27.196C7.37159 30.544 10.5708 33.0448 14.4681 33.0448C18.0672 33.0448 19.5982 31.1872 19.5982 31.1872V28.3456C19.5982 28.3456 17.833 30.2056 15.6347 30.5776C15.3874 28.8417 14.5911 27.2341 13.3655 25.9967C12.1399 24.7593 10.5513 23.9589 8.83869 23.716C9.40423 20.8768 11.5363 19.288 14.435 19.288C17.3337 19.288 19.6668 21.4168 19.6668 21.4168V18.6112C19.6668 18.6112 18.1666 17.1904 15.5022 16.888C15.5684 15.64 16.3682 14.0824 17.2343 13.5064C20.8642 14.656 24.3639 17.7664 25.3625 22.2952C25.3625 22.2952 23.7629 23.9176 20.7648 23.9176C18.2991 23.9176 16.7421 22.6672 15.8666 20.4712C15.4073 20.3053 14.9225 20.224 14.435 20.2312C13.98 20.2261 13.5282 20.3075 13.1027 20.4712C14.0682 23.9872 17.1254 26.3512 20.5329 26.3512C23.8646 26.3512 25.663 24.7984 25.663 24.7984C25.663 31.828 20.3649 36.8656 14.0682 37C14.8017 36.28 15.3673 34.7008 15.5353 33.9232Z" fill="#FF5300"/>
</g>
</g>
<defs>
<clipPath id="clip0_305_50">
<rect width="146" height="24" fill="white" transform="translate(2 13)"/>
</clipPath>
</defs>
</svg>
