<svg viewBox="0 0 617 100" fill="none" xmlns="http://www.w3.org/2000/svg">
<g clip-path="url(#clip0_334_2)">
<path d="M143.72 49.28C143.72 61.45 152.81 69.57 163.83 69.57C169.81 69.5828 175.675 67.9312 180.77 64.8V76.62C178.48 78.04 171.6 80.62 163.92 80.62C146 80.59 131.81 67 131.81 49.28C131.81 31.56 146 18 163.92 18C171.6 18 178.48 20.56 180.77 22V33.75C175.671 30.6307 169.807 28.9864 163.83 29C152.81 29 143.72 37.11 143.72 49.28ZM233.5 50V79.71H222.5V53.51C222.5 48.31 220.2 44.43 214.29 44.43C208.56 44.43 205.21 48.04 205.21 54.57V79.71H194.21V15.32H205.21V42.93C206 40.93 209.09 34.72 218.35 34.72C227.86 34.72 233.5 40.37 233.5 50ZM293.31 70.45V79.71H279.11C278.879 79.7239 278.648 79.6897 278.431 79.6095C278.214 79.5293 278.016 79.4049 277.849 79.2441C277.683 79.0833 277.552 78.8897 277.464 78.6755C277.376 78.4614 277.334 78.2313 277.34 78V70.1C275.84 75.3 271.79 80.59 263.34 80.59C251.87 80.59 243.58 72.04 243.58 57.66C243.58 43.1 252.66 34.72 263.95 34.72C274.36 34.72 276.48 43.28 276.48 43.28V35.61H287.48V70.45H293.31ZM276.81 57.75C276.81 49.46 272.81 44.25 266.23 44.25C259.88 44.25 255.03 48.93 255.03 57.66C255.03 66.39 259.03 71.07 265.7 71.07C272.49 71.07 276.81 66.66 276.81 57.75ZM318.56 37.37V79.71H307.56V44.87H299.56V35.61H316.84C317.071 35.6027 317.302 35.6436 317.516 35.73C317.731 35.8164 317.925 35.9465 318.087 36.112C318.249 36.2774 318.374 36.4747 318.456 36.6913C318.537 36.9078 318.573 37.139 318.56 37.37ZM318.21 26.43H306.3V15.32H318.21V26.43ZM331.41 35.61H342.26V43.46C342.62 42.31 345.26 34.72 355.58 34.72C365.11 34.72 370.76 40.37 370.76 49.98V79.71H359.76V53.51C359.76 48.31 357.47 44.43 351.56 44.43C345.82 44.43 342.47 48.04 342.47 54.57V79.71H331.47L331.41 35.61ZM430.56 70.45V79.71H416.36C416.129 79.7239 415.898 79.6897 415.681 79.6095C415.464 79.5293 415.266 79.4049 415.099 79.2441C414.933 79.0833 414.802 78.8897 414.714 78.6755C414.626 78.4614 414.584 78.2313 414.59 78V70.1C413.09 75.3 409.04 80.59 400.59 80.59C389.12 80.59 380.83 72.04 380.83 57.66C380.83 43.1 389.91 34.72 401.21 34.72C411.62 34.72 413.73 43.28 413.73 43.28V35.61H424.73V70.45H430.56ZM414.06 57.75C414.06 49.46 410.06 44.25 403.48 44.25C397.13 44.25 392.28 48.93 392.28 57.66C392.28 66.39 396.33 71.07 403 71.07C409.74 71.07 414.06 66.66 414.06 57.75ZM453.06 18V79.71H442V24.58H435.12V15.32H450.38C450.733 15.316 451.083 15.3826 451.41 15.5158C451.737 15.6491 452.034 15.8463 452.284 16.096C452.534 16.3457 452.731 16.6427 452.864 16.9697C452.997 17.2966 453.064 17.6469 453.06 18ZM472.87 100H461.87V90.74H470C472.91 90.74 474.24 89.86 475.29 87.21L478.56 78.92L461.58 35.61H473.84L484.16 66.74L494.84 35.61H507.1L485.4 91.44C483.11 97.35 479.31 100 472.87 100ZM513.21 76.89V66.22C514.71 67.22 520.79 71.22 527.59 71.22C532.79 71.22 535.08 69.72 535.08 66.81C535.08 58.08 512.59 64.52 512.59 47.94C512.59 40.44 518.94 34.7 530.59 34.7C537.02 34.7 541.59 36.38 543.38 37.44V48C541.17 46.58 536.76 43.76 530.76 43.76C525.56 43.76 523.62 45.35 523.62 47.82C523.62 54.96 546.02 50.02 546.02 66.26C546.02 75.08 538.7 80.63 528.02 80.63C521 80.59 515.24 78.21 513.21 76.89ZM572.4 37.37V79.71H561.4V44.87H553.4V35.61H570.69C570.921 35.6026 571.151 35.6435 571.365 35.73C571.579 35.8165 571.773 35.9467 571.934 36.1124C572.095 36.278 572.219 36.4754 572.299 36.692C572.38 36.9085 572.414 37.1395 572.4 37.37ZM572.05 26.43H560.14V15.32H572.05V26.43ZM584.19 76.89V66.22C585.68 67.22 591.77 71.22 598.56 71.22C603.77 71.22 606.06 69.72 606.06 66.81C606.06 58.08 583.57 64.52 583.57 47.94C583.57 40.44 589.92 34.7 601.57 34.7C608.01 34.7 612.57 36.38 614.36 37.44V48C610.67 45.3672 606.281 43.8913 601.75 43.76C596.54 43.76 594.6 45.35 594.6 47.82C594.6 54.96 617.01 50.02 617.01 66.26C617.01 75.08 609.69 80.63 599.01 80.63C592 80.59 586.21 78.21 584.19 76.89Z" fill="#FF5300"/>
<path d="M50 0C51.12 0 52.39 0.14 52.39 0.14C48.6323 4.64686 46.3679 10.21 45.91 16.06C38.8298 17.2444 32.3115 20.6548 27.3016 25.7961C22.2917 30.9373 19.0509 37.5416 18.05 44.65C11.58 45.35 4.26 48.31 0.0500038 52.54C-0.949996 23.52 21.29 0 50 0ZM57.2 87.18C55.8757 87.3757 54.5387 87.4726 53.2 87.47C50.8895 87.4424 48.5838 87.2519 46.3 86.9C44.5157 91.196 42.1613 95.2323 39.3 98.9C30.3251 96.9207 22.0694 92.5061 15.4397 86.1411C8.81006 79.776 4.063 71.7069 1.72 62.82C6.23 57.47 16.65 54.37 23.12 54.37C36.92 54.37 44.24 61.69 46.78 73.1C38.47 70.85 33.54 66.2 30.3 59.3C28.4065 58.6125 26.4042 58.2737 24.39 58.3C22.5725 58.2926 20.7657 58.5796 19.04 59.15C22.7 73.1 36.22 83.52 52.69 83.52C67.9 83.52 74.37 75.78 74.37 75.78V63.94C74.37 63.94 66.91 71.69 57.62 73.24C56.5749 66.007 53.2097 59.3088 48.0304 54.153C42.851 48.9971 36.1377 45.6622 28.9 44.65C31.29 32.82 40.3 26.2 52.55 26.2C64.8 26.2 74.66 35.07 74.66 35.07V23.38C74.66 23.38 68.32 17.46 57.06 16.2C57.34 11 60.72 4.51 64.38 2.11C79.72 6.9 94.51 19.86 98.73 38.73C98.73 38.73 91.97 45.49 79.3 45.49C68.88 45.49 62.3 40.28 58.6 31.13C56.6591 30.4386 54.6102 30.1 52.55 30.13C50.6274 30.1089 48.7178 30.4481 46.92 31.13C51 45.78 63.92 55.63 78.32 55.63C92.4 55.63 100 49.16 100 49.16C100 78.45 77.61 99.44 51 100C54.1 97 56.49 90.42 57.2 87.18Z" fill="#FF5300"/>
</g>
<defs>
<clipPath id="clip0_334_2">
<rect width="617" height="100" fill="white"/>
</clipPath>
</defs>
</svg>
