<?xml version="1.0" standalone="no"?>
<!DOCTYPE svg PUBLIC "-//W3C//DTD SVG 20010904//EN"
 "http://www.w3.org/TR/2001/REC-SVG-20010904/DTD/svg10.dtd">
<svg version="1.0" xmlns="http://www.w3.org/2000/svg"
 width="1200.000000pt" height="600.000000pt" viewBox="0 0 1200.000000 600.000000"
 preserveAspectRatio="xMidYMid meet">

<g transform="translate(0.000000,600.000000) scale(0.100000,-0.100000)"
fill="#000000" stroke="none">
<path d="M0 3000 l0 -3000 6000 0 6000 0 0 3000 0 3000 -6000 0 -6000 0 0
-3000z m2980 1110 l0 -200 -164 0 c-90 0 -187 -5 -216 -10 -130 -25 -245 -112
-303 -229 -29 -60 -32 -74 -32 -161 0 -82 4 -103 27 -153 55 -117 179 -213
307 -237 29 -5 127 -10 217 -10 l164 0 0 -201 0 -201 -232 5 c-251 5 -298 12
-433 72 -186 83 -366 269 -432 448 -9 26 -20 47 -24 47 -10 0 -19 -85 -19
-179 0 -294 175 -563 455 -698 150 -72 217 -85 468 -90 l217 -5 0 -199 0 -199
-207 0 c-226 0 -328 12 -478 55 -446 129 -793 511 -872 960 -23 132 -13 338
21 470 32 121 124 313 196 407 73 97 235 245 334 307 148 92 346 166 512 190
33 5 157 9 277 10 l217 1 0 -200z m1464 -518 c115 -54 180 -148 188 -272 l3
-55 -117 -3 -118 -3 -6 43 c-12 72 -87 128 -172 128 -52 0 -113 -23 -137 -52
l-25 -30 0 -238 0 -238 25 -30 c63 -75 255 -61 293 22 6 13 14 40 17 60 l7 36
114 0 c62 0 115 -4 119 -9 11 -19 -17 -146 -43 -194 -67 -124 -234 -188 -434
-165 -152 16 -251 77 -305 186 l-28 57 0 275 0 275 28 57 c54 110 160 174 307
187 116 9 211 -3 284 -37z m6136 -477 l0 -505 -62 0 c-58 0 -65 2 -88 31 l-26
31 -68 -38 c-85 -46 -178 -56 -272 -29 -77 22 -146 89 -168 166 -22 74 -22
354 0 428 21 72 79 134 152 162 73 27 193 23 265 -9 l47 -21 0 145 0 144 110
0 110 0 0 -505z m-2193 463 c112 -59 170 -200 143 -348 -15 -84 -39 -129 -94
-177 -68 -60 -122 -73 -297 -73 l-149 0 0 -185 0 -185 -120 0 -120 0 0 501 0
500 293 -3 292 -3 52 -27z m-3073 -237 c130 -64 156 -124 156 -356 0 -192 -11
-237 -75 -301 -66 -65 -136 -88 -270 -89 -60 0 -129 6 -152 13 -64 19 -134 72
-168 126 l-30 49 -3 185 c-3 155 -1 192 13 229 22 57 57 97 113 130 72 42 125
53 244 50 96 -3 113 -6 172 -36z m1291 12 c53 -28 89 -67 117 -128 22 -48 23
-63 26 -332 l4 -283 -111 0 -111 0 0 238 c0 130 -5 253 -10 273 -13 48 -47 69
-108 69 -36 0 -60 -7 -95 -30 l-47 -30 0 -260 0 -260 -110 0 -110 0 0 375 0
375 65 0 c61 0 67 -2 94 -32 l28 -31 34 24 c18 13 56 32 84 42 68 24 194 19
250 -10z m803 -8 c73 -33 123 -85 146 -153 26 -74 28 -72 -88 -72 -100 0 -105
1 -123 25 -18 26 -80 54 -118 55 -70 1 -126 -44 -94 -75 8 -8 86 -32 174 -54
178 -46 214 -66 253 -141 45 -88 21 -195 -58 -263 -65 -55 -125 -72 -260 -72
-103 0 -121 3 -170 26 -103 48 -162 118 -176 208 l-7 41 106 0 c105 0 106 0
119 -27 21 -44 72 -67 150 -67 56 0 72 4 89 21 27 26 18 57 -19 72 -15 6 -83
24 -151 41 -137 34 -183 54 -223 97 -55 58 -64 144 -24 230 27 58 74 95 159
125 81 29 231 21 315 -17z m1749 -6 c56 -28 73 -43 99 -86 41 -68 44 -99 44
-394 l0 -249 -67 0 c-64 0 -70 2 -93 30 l-25 31 -72 -37 c-58 -30 -86 -38
-146 -42 -187 -12 -307 88 -295 247 6 86 46 147 123 186 56 29 65 30 202 33
161 4 164 6 144 71 -13 45 -42 61 -111 61 -61 0 -99 -16 -106 -47 -6 -22 -10
-23 -110 -23 l-104 0 0 38 c1 57 39 122 94 160 75 50 126 62 248 59 100 -3
113 -6 175 -38z m-3307 -354 l0 -375 -110 0 -110 0 0 375 0 375 110 0 110 0 0
-375z m3860 0 l0 -375 -110 0 -110 0 0 375 0 375 110 0 110 0 0 -375z"/>
<path d="M10144 3172 c-12 -9 -27 -27 -33 -39 -15 -30 -14 -264 1 -298 33 -72
158 -73 236 -2 21 19 22 28 22 152 0 124 -1 133 -22 152 -59 53 -161 71 -204
35z"/>
<path d="M7990 3301 l0 -121 121 0 c120 0 121 0 150 29 25 26 29 37 29 85 0
47 -4 61 -29 88 l-29 33 -121 4 -121 3 0 -121z"/>
<path d="M5038 3174 c-15 -8 -32 -23 -38 -34 -13 -25 -13 -286 0 -311 35 -65
205 -65 240 0 13 25 13 287 0 312 -25 46 -143 66 -202 33z"/>
<path d="M8875 2913 c-34 -8 -55 -34 -55 -68 0 -47 31 -70 94 -70 67 0 98 10
135 41 25 21 31 33 31 65 l0 39 -92 -1 c-51 -1 -102 -4 -113 -6z"/>
</g>
</svg>
