<svg width="504" height="166" viewBox="0 0 504 166" fill="none" xmlns="http://www.w3.org/2000/svg">
<g clip-path="url(#clip0_437_13)">
<path d="M76.8803 39.1655H92.4845V17C92.4845 17 76.0847 17 75.687 17.0175C39.3288 17.679 10 47.1875 10 83.5C10 120.205 39.9694 149.965 76.8803 150H92.4845V127.831H76.8803C70.1087 127.805 63.4316 126.248 57.355 123.276C51.2784 120.305 45.9612 115.998 41.8065 110.681C37.6517 105.364 34.7681 99.1766 33.374 92.5877C31.9799 85.9987 32.112 79.1806 33.7601 72.6499C36.2752 82.1134 41.8686 90.4835 49.6682 96.4556C57.4681 102.428 67.036 105.666 76.8803 105.666H92.4845V83.5H76.8803C64.6552 83.5 54.7042 73.4899 54.7042 61.3344C54.7042 49.179 64.6552 39.1655 76.8803 39.1655Z" fill="black"/>
<path d="M137.072 92.4744V74.5229C137.072 61.8142 144.816 54.5098 159.121 54.5098C165.19 54.5098 170.223 56.1757 174.137 59.4342C178.052 62.6927 180.048 67.5332 180.048 74.1344V74.9287H167.587V74.1344C167.587 68.4154 163.514 65.7936 158.322 65.7936C152.411 65.7936 149.455 68.4154 149.455 73.6584V93.3563C149.455 98.5993 152.411 101.221 158.322 101.221C163.672 101.221 167.587 98.8373 167.587 92.8803V92.0857H180.048V92.8803C180.048 99.4709 178.052 104.395 174.137 107.654C170.223 110.912 165.19 112.498 159.121 112.498C144.816 112.491 137.072 105.2 137.072 92.4744Z" fill="black"/>
<path d="M187.235 83.9762C187.235 74.8412 193.867 68.5762 205.687 68.5762C217.507 68.5762 224.062 74.8517 224.062 83.9762V96.765C224.062 105.897 217.511 112.253 205.687 112.253C193.863 112.253 187.235 105.9 187.235 96.765V83.9762ZM212.717 96.366V84.5502C212.717 81.1341 210.161 78.7507 205.676 78.7507C200.963 78.7507 198.566 81.2917 198.566 84.5502V96.3837C198.566 99.6422 200.963 102.103 205.676 102.103C210.161 102.085 212.717 99.6245 212.717 96.366Z" fill="black"/>
<path d="M232.925 111.301V69.5215H244.27V111.301H232.925Z" fill="black"/>
<path d="M254.992 111.301V69.5212H261.462L264.577 73.413C266.19 71.8412 268.101 70.6033 270.199 69.7712C272.297 68.9391 274.54 68.5295 276.799 68.5657C285.986 68.5657 291.417 74.6837 291.417 84.851V111.301H280.058V85.4846C280.058 81.036 277.661 78.733 274.225 78.733C271.268 78.733 268.632 80.0842 266.316 82.7056V111.301H254.992Z" fill="black"/>
<path d="M304.339 107.965C300.984 105.102 299.228 101.451 299.147 96.9226H310.172C310.875 100.496 313.765 102.246 318.88 102.246C322.316 102.246 324.392 101.133 324.392 99.306C324.392 97.7976 323.192 96.765 320.718 96.128L310.411 93.5065C303.621 91.7564 300.185 88.0256 300.185 82.2295C300.185 73.7315 306.416 68.5796 317.201 68.5796C327.508 68.5796 334.449 74.2215 334.777 83.1151H323.833C322.953 80.0981 320.478 78.5894 316.483 78.5894C312.963 78.5894 311.203 79.622 311.203 81.6064C311.203 82.7195 312.322 83.5946 314.558 84.1474L325.582 86.9302C332.133 88.5961 335.407 92.4879 335.407 98.4449C335.407 107.104 328.616 112.267 317.835 112.267C312.248 112.252 307.792 110.821 304.339 107.965Z" fill="black"/>
<path d="M344.752 111.301V55.6997H369.837C379.824 55.6997 385.812 62.4513 385.812 73.1752C385.812 83.8995 379.831 90.5703 369.837 90.5703H357.144V111.301H344.752ZM357.137 79.8464H367.519C370.635 79.8464 373.273 77.6239 373.273 73.1752C373.273 68.7269 370.635 66.4239 367.519 66.4239H357.144L357.137 79.8464Z" fill="black"/>
<path d="M419.294 111.301L416.178 107.409C412.743 110.664 408.506 112.253 403.472 112.253C399.48 112.253 396.126 111.14 393.41 108.998C390.693 106.772 389.333 103.673 389.337 99.7019C389.337 91.0463 395.008 86.1219 406.27 86.1219H414.498V83.8186C414.498 80.4029 412.501 78.7333 408.424 78.7333C404.351 78.7333 402.357 80.0844 402.357 82.8634H391.252C391.252 74.2078 397.166 68.5659 408.424 68.5659C419.686 68.5659 425.841 74.2078 425.841 83.0244V111.301H419.294ZM414.498 98.6693V94.0634H406.27C402.517 94.0634 400.677 95.4142 400.677 98.1932C400.677 100.643 402.439 102.323 405.871 102.323C409.385 102.323 412.262 101.133 414.498 98.6693Z" fill="black"/>
<path d="M436.145 111.301V69.5215H447.492V111.301H436.145Z" fill="black"/>
<path d="M487.35 111.301L484.235 107.408C482.606 108.983 480.676 110.221 478.563 111.052C476.447 111.883 474.19 112.291 471.917 112.252C463.29 112.252 456.978 107.003 456.978 96.9226V83.8184C456.978 78.8135 458.416 75.0022 461.201 72.4574C463.996 69.8394 467.591 68.5657 471.907 68.5657C476.222 68.5657 479.736 69.6784 482.466 71.9814V55.3042H493.809V111.304L487.35 111.301ZM482.476 98.1125V82.7124C479.841 80.091 477.047 78.7402 474.252 78.7402C473.464 78.7333 472.687 78.8831 471.964 79.1808C471.238 79.4781 470.581 79.9174 470.029 80.4722C469.48 81.0271 469.043 81.6863 468.754 82.411C468.464 83.1353 468.324 83.9105 468.341 84.69V96.128C468.324 96.908 468.464 97.6831 468.754 98.4078C469.043 99.1325 469.476 99.7917 470.029 100.347C470.581 100.902 471.238 101.341 471.961 101.638C472.687 101.936 473.464 102.085 474.252 102.078C477.047 102.085 479.841 100.734 482.476 98.1125Z" fill="black"/>
</g>
<defs>
<clipPath id="clip0_437_13">
<rect width="484" height="133" fill="white" transform="translate(10 17)"/>
</clipPath>
</defs>
</svg>
