<svg viewBox="0 0 1474 411" fill="none" xmlns="http://www.w3.org/2000/svg">
<path d="M204.293 69.1089H251.784V0.736328C251.784 0.736328 201.872 0.736335 200.659 0.790181C90.0012 2.83084 0.736328 93.8539 0.736328 205.865C0.736328 319.084 91.951 410.887 204.293 410.993H251.784V342.608H204.293C183.681 342.531 163.359 337.725 144.865 328.561C126.37 319.396 110.187 306.106 97.5426 289.707C84.8968 273.308 76.1206 254.22 71.8774 233.898C67.6345 213.571 68.0363 192.542 73.0525 172.396C80.7074 201.586 97.7316 227.407 121.473 245.828C145.209 264.249 174.33 274.238 204.293 274.238H251.784V205.865H204.293C167.084 205.865 136.799 174.989 136.799 137.491C136.799 99.9968 167.084 69.1089 204.293 69.1089Z" fill="#0057FF"/>
<path d="M387.494 233.546V178.172C387.494 138.971 411.062 116.44 454.604 116.44C473.073 116.44 488.392 121.579 500.307 131.63C512.219 141.681 518.296 156.612 518.296 176.974V179.425H480.37V176.974C480.37 159.333 467.974 151.245 452.172 151.245C434.179 151.245 425.183 159.333 425.183 175.506V236.267C425.183 252.44 434.179 260.524 452.172 260.524C468.454 260.524 480.37 253.172 480.37 234.799V232.348H518.296V234.799C518.296 255.128 512.219 270.319 500.307 280.37C488.392 290.421 473.073 295.311 454.604 295.311C411.062 295.289 387.494 272.802 387.494 233.546Z" fill="#101417"/>
<path d="M540.172 207.333C540.172 179.154 560.355 159.828 596.333 159.828C632.307 159.828 652.256 179.187 652.256 207.333V246.784C652.256 274.949 632.318 294.557 596.333 294.557C560.344 294.557 540.172 274.96 540.172 246.784V207.333ZM617.725 245.553V209.103C617.725 198.568 609.948 191.212 596.3 191.212C581.956 191.212 574.659 199.051 574.659 209.103V245.604C574.659 255.656 581.956 263.245 596.3 263.245C609.948 263.194 617.725 255.604 617.725 245.553Z" fill="#101417"/>
<path d="M679.23 291.619V162.744H713.762V291.619H679.23Z" fill="#101417"/>
<path d="M746.396 291.619V162.744H766.088L775.568 174.751C780.48 169.901 786.293 166.084 792.681 163.517C799.066 160.949 805.894 159.685 812.765 159.795C840.729 159.795 857.26 178.667 857.26 210.033V291.619H822.685V211.985C822.685 198.264 815.392 191.161 804.934 191.161C795.934 191.161 787.912 195.326 780.861 203.414V291.619H746.396Z" fill="#101417"/>
<path d="M896.586 281.33C886.378 272.498 881.033 261.238 880.784 247.267H914.341C916.484 258.289 925.279 263.689 940.846 263.689C951.301 263.689 957.623 260.256 957.623 254.619C957.623 249.967 953.971 246.78 946.44 244.817L915.07 236.729C894.403 231.333 883.945 219.824 883.945 201.945C883.945 175.733 902.909 159.839 935.737 159.839C967.103 159.839 988.231 177.242 989.227 204.678H955.92C953.242 195.37 945.711 190.718 933.55 190.718C922.835 190.718 917.48 193.901 917.48 200.022C917.48 203.458 920.887 206.158 927.689 207.861L961.246 216.443C981.183 221.582 991.147 233.59 991.147 251.963C991.147 278.674 970.48 294.597 937.663 294.597C920.66 294.557 907.099 290.139 896.586 281.33Z" fill="#101417"/>
<path d="M1019.59 291.619V120.11H1095.93C1126.33 120.11 1144.56 140.934 1144.56 174.015C1144.56 207.095 1126.35 227.674 1095.93 227.674H1057.3V291.619H1019.59ZM1057.28 194.593H1088.89C1098.37 194.593 1106.39 187.736 1106.39 174.015C1106.39 160.293 1098.37 153.19 1088.89 153.19H1057.3L1057.28 194.593Z" fill="#101417"/>
<path d="M1246.46 291.619L1236.98 279.612C1226.52 289.656 1213.63 294.557 1198.31 294.557C1186.16 294.557 1175.95 291.121 1167.68 284.517C1159.41 277.648 1155.28 268.092 1155.29 255.839C1155.29 229.143 1172.55 213.952 1206.83 213.952H1231.87V206.846C1231.87 196.311 1225.79 191.161 1213.38 191.161C1200.98 191.161 1194.92 195.326 1194.92 203.901H1161.11C1161.11 177.201 1179.11 159.799 1213.38 159.799C1247.66 159.799 1266.4 177.201 1266.4 204.396V291.619H1246.46ZM1231.87 252.656V238.447H1206.83C1195.4 238.447 1189.81 242.615 1189.81 251.187C1189.81 258.744 1195.16 263.927 1205.61 263.927C1216.31 263.927 1225.06 260.256 1231.87 252.656Z" fill="#101417"/>
<path d="M1297.75 291.619V162.744H1332.29V291.619H1297.75Z" fill="#101417"/>
<path d="M1453.6 291.619L1444.12 279.615C1439.16 284.469 1433.29 288.289 1426.85 290.854C1420.42 293.418 1413.55 294.674 1406.63 294.557C1380.37 294.557 1361.16 278.363 1361.16 247.267V206.846C1361.16 191.41 1365.54 179.652 1374.01 171.802C1382.52 163.725 1393.46 159.799 1406.59 159.799C1419.73 159.799 1430.42 163.231 1438.73 170.333V118.89H1473.26V291.63L1453.6 291.619ZM1438.77 250.938V203.436C1430.74 195.348 1422.23 191.183 1413.73 191.183C1411.34 191.161 1408.97 191.623 1406.77 192.542C1404.56 193.458 1402.56 194.813 1400.88 196.524C1399.2 198.238 1397.89 200.271 1397 202.506C1396.12 204.74 1395.69 207.132 1395.74 209.535V244.817C1395.69 247.223 1396.12 249.615 1397 251.85C1397.88 254.084 1399.2 256.117 1400.88 257.832C1402.56 259.542 1404.56 260.897 1406.77 261.813C1408.97 262.733 1411.34 263.194 1413.73 263.172C1422.23 263.194 1430.74 259.026 1438.77 250.938Z" fill="#101417"/>
</svg>
