<svg width="504" height="166" viewBox="0 0 504 166" fill="none" xmlns="http://www.w3.org/2000/svg">
<g clip-path="url(#clip0_305_50)">
<path d="M78.7792 37.7419H94.2765V15.355C94.2765 15.355 77.9888 15.355 77.5933 15.3726C41.483 16.0408 12.3538 45.844 12.3538 82.5192C12.3538 119.59 42.1193 149.648 78.7792 149.683H94.2765V127.292H78.7792C72.0529 127.267 65.4213 125.694 59.3862 122.693C53.351 119.692 48.07 115.341 43.9439 109.972C39.8173 104.602 36.9534 98.3519 35.5688 91.6978C34.1842 85.0428 34.3154 78.1573 35.9522 71.5606C38.4502 81.1181 44.0056 89.5725 51.7528 95.6041C59.4985 101.636 69.0011 104.907 78.7792 104.907H94.2765V82.5192H78.7792C66.637 82.5192 56.754 72.4097 56.754 60.1319C56.754 47.8554 66.637 37.7419 78.7792 37.7419Z" fill="#0057FF"/>
<path d="M138.562 91.5827V73.4522C138.562 60.6165 146.253 53.2393 160.461 53.2393C166.488 53.2393 171.487 54.922 175.376 58.213C179.263 61.5041 181.246 66.3926 181.246 73.0597V73.8625H168.869V73.0597C168.869 67.2836 164.824 64.6357 159.668 64.6357C153.796 64.6357 150.861 67.2836 150.861 72.579V92.4742C150.861 97.7691 153.796 100.416 159.668 100.416C164.981 100.416 168.869 98.0092 168.869 91.993V91.1907H181.246V91.993C181.246 98.6494 179.263 103.623 175.376 106.914C171.487 110.205 166.488 111.807 160.461 111.807C146.253 111.799 138.562 104.437 138.562 91.5827Z" fill="#101417"/>
<path d="M188.384 83C188.384 73.7737 194.97 67.4456 206.711 67.4456C218.45 67.4456 224.959 73.7843 224.959 83V95.9171C224.959 105.139 218.453 111.559 206.711 111.559C194.966 111.559 188.384 105.143 188.384 95.9171V83ZM213.691 95.5145V83.5795C213.691 80.1303 211.154 77.7219 206.7 77.7219C202.019 77.7219 199.638 80.2884 199.638 83.5795V95.5309C199.638 98.822 202.019 101.307 206.7 101.307C211.154 101.291 213.691 98.8051 213.691 95.5145Z" fill="#101417"/>
<path d="M233.762 110.597V68.4001H245.03V110.597H233.762Z" fill="#101417"/>
<path d="M255.68 110.597V68.4003H262.106L265.199 72.3317C266.802 70.744 268.699 69.4943 270.784 68.6534C272.867 67.8126 275.096 67.3989 277.338 67.435C286.463 67.435 291.857 73.6142 291.857 83.8843V110.597H280.575V84.5236C280.575 80.0305 278.195 77.7052 274.782 77.7052C271.845 77.7052 269.227 79.0687 266.927 81.7171V110.597H255.68Z" fill="#101417"/>
<path d="M304.69 107.229C301.359 104.337 299.615 100.65 299.534 96.0757H310.484C311.183 99.6846 314.053 101.452 319.133 101.452C322.545 101.452 324.608 100.329 324.608 98.4826C324.608 96.9595 323.416 95.9161 320.959 95.2734L310.722 92.625C303.978 90.8585 300.565 87.09 300.565 81.2359C300.565 72.6532 306.754 67.4495 317.466 67.4495C327.701 67.4495 334.596 73.1474 334.921 82.1307H324.052C323.178 79.0831 320.721 77.56 316.752 77.56C313.256 77.56 311.508 78.6019 311.508 80.6062C311.508 81.731 312.62 82.6153 314.84 83.1731L325.79 85.983C332.296 87.6657 335.548 91.5971 335.548 97.6133C335.548 106.359 328.804 111.573 318.095 111.573C312.546 111.559 308.121 110.113 304.69 107.229Z" fill="#101417"/>
<path d="M344.829 110.597V54.4409H369.742C379.661 54.4409 385.611 61.2593 385.611 72.0905C385.611 82.9223 379.668 89.6602 369.742 89.6602H357.135V110.597H344.829ZM357.128 78.8289H367.442C370.536 78.8289 373.155 76.5836 373.155 72.0905C373.155 67.5979 370.536 65.2725 367.442 65.2725H357.135L357.128 78.8289Z" fill="#101417"/>
<path d="M418.861 110.597L415.768 106.666C412.355 109.955 408.15 111.559 403.15 111.559C399.185 111.559 395.854 110.435 393.155 108.272C390.456 106.023 389.107 102.894 389.11 98.8824C389.11 90.1411 394.742 85.1673 405.929 85.1673H414.1V82.8405C414.1 79.3912 412.117 77.7052 408.069 77.7052C404.02 77.7052 402.042 79.0687 402.042 81.8762H391.012C391.012 73.1345 396.885 67.436 408.069 67.436C419.253 67.436 425.367 73.1345 425.367 82.0382V110.597H418.861ZM414.1 97.84V93.1878H405.929C402.2 93.1878 400.375 94.5527 400.375 97.3588C400.375 99.8331 402.122 101.53 405.531 101.53C409.024 101.53 411.88 100.329 414.1 97.84Z" fill="#101417"/>
<path d="M435.601 110.597V68.4001H446.869V110.597H435.601Z" fill="#101417"/>
<path d="M486.458 110.597L483.365 106.667C481.744 108.256 479.829 109.507 477.729 110.347C475.628 111.186 473.386 111.598 471.128 111.559C462.559 111.559 456.29 106.257 456.29 96.0756V82.8403C456.29 77.7865 457.72 73.9366 460.486 71.3663C463.262 68.7217 466.831 67.4359 471.117 67.4359C475.404 67.4359 478.893 68.5597 481.605 70.8851V54.0415H492.875V110.601L486.458 110.597ZM481.616 97.2771V81.7242C478.998 79.0758 476.221 77.7123 473.446 77.7123C472.666 77.705 471.894 77.8559 471.175 78.1573C470.455 78.4567 469.801 78.9007 469.254 79.461C468.706 80.0222 468.276 80.6876 467.988 81.4195C467.7 82.1509 467.56 82.9339 467.576 83.7207V95.2733C467.559 96.0612 467.699 96.8442 467.987 97.5761C468.275 98.3075 468.705 98.9733 469.253 99.5345C469.8 100.095 470.454 100.538 471.173 100.838C471.894 101.139 472.666 101.29 473.446 101.283C476.221 101.29 478.998 99.9255 481.616 97.2771Z" fill="#101417"/>
</g>
<defs>
<clipPath id="clip0_305_50">
<rect width="481" height="135" fill="white" transform="translate(12 15)"/>
</clipPath>
</defs>
</svg>
