<svg width="504" height="166" viewBox="0 0 504 166" fill="none" xmlns="http://www.w3.org/2000/svg">
<g clip-path="url(#clip0_305_50)">
<path d="M181.428 81.0767C181.428 79.9072 181.258 78.8415 180.918 77.8793C180.597 76.8983 180.116 76.0589 179.474 75.3611C178.851 74.6442 178.087 74.0971 177.181 73.7198C176.275 73.3237 175.247 73.1256 174.095 73.1256C171.68 73.1256 169.764 73.833 168.349 75.248C166.952 76.6438 166.084 78.5867 165.744 81.0767H181.428ZM185.504 94.5169C184.881 95.2716 184.136 95.9319 183.268 96.4976C182.4 97.0447 181.465 97.4973 180.465 97.8559C179.484 98.2142 178.464 98.4783 177.408 98.6482C176.351 98.8367 175.303 98.9309 174.265 98.9309C172.284 98.9309 170.453 98.601 168.773 97.9408C167.112 97.2617 165.668 96.2806 164.442 94.998C163.234 93.6964 162.29 92.0929 161.611 90.1878C160.931 88.2827 160.592 86.0943 160.592 83.6232C160.592 81.6238 160.894 79.7562 161.498 78.0207C162.121 76.2854 163.007 74.7858 164.159 73.5218C165.31 72.2391 166.716 71.2394 168.377 70.5224C170.038 69.7869 171.906 69.4189 173.982 69.4189C175.7 69.4189 177.285 69.7115 178.738 70.2962C180.21 70.8621 181.475 71.692 182.532 72.7862C183.607 73.8615 184.447 75.2006 185.051 76.8041C185.655 78.3886 185.957 80.1995 185.957 82.2369C185.957 83.029 185.872 83.5572 185.702 83.8212C185.533 84.0853 185.212 84.2174 184.74 84.2174H165.574C165.631 86.0283 165.876 87.6035 166.31 88.9429C166.763 90.282 167.386 91.4044 168.179 92.3099C168.971 93.1964 169.915 93.8662 171.01 94.3188C172.104 94.7528 173.331 94.9697 174.69 94.9697C175.955 94.9697 177.04 94.8281 177.946 94.5454C178.87 94.2435 179.663 93.9227 180.324 93.5832C180.984 93.2438 181.531 92.9323 181.965 92.6496C182.419 92.3477 182.805 92.1967 183.126 92.1967C183.541 92.1967 183.862 92.357 184.089 92.6778L185.504 94.5169Z" fill="#202124"/>
<path d="M207.123 85.6322C204.801 85.7078 202.819 85.8963 201.178 86.1982C199.554 86.4812 198.224 86.8584 197.186 87.3299C196.167 87.8016 195.421 88.3581 194.95 88.9994C194.496 89.6407 194.27 90.3577 194.27 91.15C194.27 91.9045 194.393 92.5551 194.638 93.1022C194.883 93.6493 195.214 94.1021 195.629 94.4605C196.063 94.7999 196.563 95.0547 197.129 95.2243C197.714 95.3752 198.337 95.4508 198.998 95.4508C199.885 95.4508 200.696 95.3659 201.432 95.1961C202.168 95.0076 202.857 94.7435 203.499 94.4038C204.16 94.0643 204.782 93.6586 205.367 93.1871C205.971 92.7156 206.556 92.1779 207.123 91.5743V85.6322ZM190.845 73.918C192.43 72.3901 194.138 71.2488 195.969 70.4943C197.799 69.7398 199.828 69.3625 202.055 69.3625C203.659 69.3625 205.084 69.6266 206.33 70.1548C207.576 70.683 208.623 71.4186 209.472 72.3619C210.322 73.3051 210.963 74.4461 211.397 75.7855C211.832 77.1249 212.049 78.5961 212.049 80.1996V98.5351H209.812C209.321 98.5351 208.944 98.4595 208.68 98.3085C208.415 98.1389 208.208 97.8181 208.057 97.3466L207.491 94.6301C206.736 95.3281 206 95.9506 205.282 96.4977C204.565 97.0258 203.81 97.4787 203.018 97.8559C202.225 98.2143 201.376 98.4877 200.47 98.6764C199.583 98.8838 198.592 98.9877 197.497 98.9877C196.384 98.9877 195.336 98.8367 194.355 98.5351C193.373 98.2143 192.515 97.7428 191.779 97.1201C191.061 96.4977 190.486 95.7149 190.052 94.7717C189.637 93.8096 189.429 92.6778 189.429 91.3763C189.429 90.2445 189.741 89.1597 190.363 88.1222C190.986 87.0658 191.996 86.1321 193.392 85.3209C194.789 84.51 196.61 83.8498 198.856 83.3405C201.102 82.8123 203.857 82.5104 207.123 82.435V80.1996C207.123 77.9736 206.641 76.2948 205.679 75.1631C204.716 74.0125 203.31 73.4371 201.461 73.4371C200.215 73.4371 199.168 73.5974 198.318 73.918C197.488 74.2198 196.761 74.5689 196.138 74.965C195.534 75.3423 195.006 75.6913 194.553 76.0118C194.119 76.3137 193.685 76.4647 193.251 76.4647C192.911 76.4647 192.619 76.3797 192.373 76.2099C192.128 76.0214 191.92 75.7948 191.751 75.5307L190.845 73.918Z" fill="#202124"/>
<path d="M235.861 74.597C235.634 75.0121 235.285 75.2195 234.813 75.2195C234.53 75.2195 234.209 75.1159 233.851 74.9083C233.492 74.7009 233.049 74.4746 232.52 74.2291C232.011 73.965 231.397 73.7294 230.68 73.5218C229.963 73.2955 229.114 73.1823 228.132 73.1823C227.283 73.1823 226.519 73.2955 225.839 73.5218C225.16 73.7294 224.575 74.0217 224.084 74.399C223.612 74.7762 223.244 75.2195 222.98 75.7288C222.735 76.2194 222.612 76.7569 222.612 77.3418C222.612 78.0774 222.819 78.6905 223.235 79.1809C223.669 79.6713 224.235 80.0957 224.933 80.4543C225.632 80.8126 226.424 81.1332 227.311 81.4162C228.198 81.6803 229.104 81.9728 230.029 82.2934C230.973 82.5953 231.888 82.9347 232.775 83.312C233.662 83.6892 234.455 84.1609 235.153 84.7267C235.851 85.2927 236.408 85.9907 236.823 86.8206C237.258 87.6317 237.474 88.6128 237.474 89.7634C237.474 91.0839 237.239 92.3099 236.767 93.4419C236.295 94.5547 235.597 95.5261 234.672 96.3562C233.747 97.1674 232.615 97.8088 231.275 98.2803C229.935 98.7517 228.387 98.9876 226.632 98.9876C224.631 98.9876 222.819 98.6671 221.197 98.0255C219.573 97.3652 218.196 96.5258 217.063 95.5072L218.252 93.5832C218.403 93.338 218.582 93.1493 218.79 93.0172C218.998 92.8852 219.262 92.8192 219.583 92.8192C219.923 92.8192 220.281 92.9512 220.658 93.2153C221.036 93.4794 221.489 93.772 222.017 94.0925C222.565 94.4133 223.225 94.7056 223.999 94.9697C224.773 95.2338 225.735 95.3659 226.887 95.3659C227.868 95.3659 228.727 95.2431 229.463 94.998C230.199 94.7339 230.812 94.3848 231.303 93.9511C231.794 93.5172 232.152 93.0172 232.379 92.4515C232.624 91.8855 232.747 91.282 232.747 90.6406C232.747 89.8483 232.53 89.1974 232.096 88.6881C231.681 88.1599 231.124 87.7167 230.425 87.3583C229.727 86.9811 228.925 86.6603 228.019 86.3962C227.132 86.1132 226.217 85.8209 225.273 85.519C224.348 85.2173 223.433 84.8776 222.527 84.5004C221.64 84.1042 220.847 83.6139 220.149 83.029C219.451 82.4443 218.885 81.7274 218.45 80.8786C218.035 80.011 217.828 78.9639 217.828 77.738C217.828 76.6438 218.054 75.5967 218.507 74.597C218.96 73.5785 219.62 72.6919 220.489 71.9374C221.357 71.1638 222.423 70.5509 223.688 70.0981C224.952 69.6455 226.396 69.4189 228.019 69.4189C229.906 69.4189 231.596 69.7208 233.087 70.3244C234.596 70.9093 235.899 71.7205 236.993 72.7579L235.861 74.597Z" fill="#202124"/>
<path d="M267.332 69.8718L251.337 106.995C251.167 107.372 250.95 107.674 250.685 107.901C250.44 108.127 250.053 108.24 249.525 108.24H245.788L251.025 96.8656L239.192 69.8718H243.551C243.985 69.8718 244.325 69.985 244.571 70.2113C244.835 70.4189 245.014 70.6545 245.108 70.9186L252.78 88.9712C253.082 89.7634 253.337 90.5933 253.545 91.4612C253.809 90.5746 254.092 89.7352 254.394 88.9429L261.839 70.9186C261.953 70.617 262.141 70.3718 262.406 70.183C262.689 69.9757 263 69.8718 263.34 69.8718H267.332Z" fill="#202124"/>
<path d="M273.085 98.5351V74.1727H265.479C265.082 74.0785 265.5 73.7186 265.236 73.5299C264.991 73.3225 265.236 72.8805 265.236 72.5032V69.8718H273.085V67.6648C273.085 66.0235 273.312 64.571 273.764 63.3072C274.238 62.0246 274.898 60.9493 275.745 60.0816C276.615 59.1951 277.651 58.5253 278.862 58.0727C280.069 57.6199 281.428 57.3936 282.936 57.3936C284.219 57.3936 285.399 57.5823 286.476 57.9595L286.362 60.4778C286.325 60.9304 286.07 61.1758 285.599 61.2134C285.145 61.2512 284.532 61.2701 283.758 61.2701C282.891 61.2701 282.097 61.3832 281.38 61.6095C280.682 61.8358 280.077 62.2037 279.568 62.713C279.058 63.2223 278.663 63.8921 278.38 64.722C278.115 65.5521 277.982 66.5802 277.982 67.8062V70.4378H286.249V74.0878H278.153V98.5351H273.085Z" fill="#202124"/>
<path d="M308.754 81.0767C308.754 79.9072 308.585 78.8415 308.245 77.8793C307.924 76.8983 307.443 76.0589 306.802 75.3611C306.18 74.6442 305.413 74.0971 304.508 73.7198C303.603 73.3237 302.574 73.1256 301.422 73.1256C299.007 73.1256 297.091 73.833 295.676 75.248C294.279 76.6438 293.412 78.5867 293.072 81.0767H308.754ZM312.831 94.5169C312.208 95.2716 311.462 95.9319 310.594 96.4976C309.727 97.0447 308.792 97.4973 307.793 97.8559C306.81 98.2142 305.791 98.4783 304.735 98.6482C303.679 98.8367 302.63 98.9309 301.594 98.9309C299.612 98.9309 297.779 98.601 296.1 97.9408C294.441 97.2617 292.996 96.2806 291.768 94.998C290.56 93.6964 289.617 92.0929 288.937 90.1878C288.258 88.2827 287.918 86.0943 287.918 83.6232C287.918 81.6238 288.221 79.7562 288.826 78.0207C289.449 76.2854 290.334 74.7858 291.486 73.5218C292.638 72.2391 294.042 71.2394 295.704 70.5224C297.365 69.7869 299.234 69.4189 301.309 69.4189C303.026 69.4189 304.611 69.7115 306.066 70.2962C307.536 70.8621 308.802 71.692 309.858 72.7862C310.935 73.8615 311.774 75.2006 312.38 76.8041C312.982 78.3886 313.285 80.1995 313.285 82.2369C313.285 83.029 313.199 83.5572 313.03 83.8212C312.859 84.0853 312.538 84.2174 312.067 84.2174H292.9C292.958 86.0283 293.203 87.6035 293.636 88.9429C294.09 90.282 294.713 91.4044 295.505 92.3099C296.299 93.1964 297.242 93.8662 298.336 94.3188C299.43 94.7528 300.658 94.9697 302.017 94.9697C303.28 94.9697 304.367 94.8281 305.272 94.5454C306.197 94.2435 306.989 93.9227 307.65 93.5832C308.31 93.2438 308.857 92.9323 309.293 92.6496C309.745 92.3477 310.133 92.1967 310.453 92.1967C310.869 92.1967 311.19 92.357 311.416 92.6778L312.831 94.5169Z" fill="#202124"/>
<path d="M338.102 81.0767C338.102 79.9072 337.933 78.8415 337.592 77.8793C337.272 76.8983 336.791 76.0589 336.148 75.3611C335.525 74.6442 334.761 74.0971 333.856 73.7198C332.948 73.3237 331.919 73.1256 330.77 73.1256C328.354 73.1256 326.438 73.833 325.024 75.248C323.627 76.6438 322.757 78.5867 322.419 81.0767H338.102ZM342.179 94.5169C341.556 95.2716 340.809 95.9319 339.942 96.4976C339.075 97.0447 338.139 97.4973 337.138 97.8559C336.158 98.2142 335.139 98.4783 334.083 98.6482C333.024 98.8367 331.977 98.9309 330.939 98.9309C328.957 98.9309 327.126 98.601 325.447 97.9408C323.786 97.2617 322.344 96.2806 321.116 94.998C319.908 93.6964 318.965 92.0929 318.284 90.1878C317.606 88.2827 317.266 86.0943 317.266 83.6232C317.266 81.6238 317.568 79.7562 318.171 78.0207C318.794 76.2854 319.681 74.7858 320.833 73.5218C321.983 72.2391 323.39 71.2394 325.051 70.5224C326.71 69.7869 328.581 69.4189 330.656 69.4189C332.373 69.4189 333.959 69.7115 335.411 70.2962C336.884 70.8621 338.15 71.692 339.206 72.7862C340.283 73.8615 341.122 75.2006 341.725 76.8041C342.33 78.3886 342.632 80.1995 342.632 82.2369C342.632 83.029 342.547 83.5572 342.375 83.8212C342.206 84.0853 341.886 84.2174 341.415 84.2174H322.248C322.306 86.0283 322.55 87.6035 322.984 88.9429C323.438 90.282 324.061 91.4044 324.852 92.3099C325.646 93.1964 326.589 93.8662 327.684 94.3188C328.778 94.7528 330.006 94.9697 331.365 94.9697C332.628 94.9697 333.715 94.8281 334.62 94.5454C335.545 94.2435 336.337 93.9227 336.997 93.5832C337.658 93.2438 338.205 92.9323 338.639 92.6496C339.092 92.3477 339.478 92.1967 339.801 92.1967C340.214 92.1967 340.537 92.357 340.762 92.6778L342.179 94.5169Z" fill="#202124"/>
<path d="M366.94 76.6909C365.994 75.4271 364.976 74.5499 363.882 74.0595C362.787 73.5502 361.56 73.2954 360.201 73.2954C357.541 73.2954 355.493 74.248 354.059 76.1534C352.624 78.0585 351.906 80.7748 351.906 84.3023C351.906 86.1699 352.067 87.7733 352.387 89.1125C352.71 90.4329 353.181 91.5271 353.804 92.3948C354.427 93.2437 355.191 93.8662 356.096 94.2623C357.001 94.6585 358.03 94.8565 359.182 94.8565C360.844 94.8565 362.286 94.4793 363.514 93.7246C364.759 92.9701 365.901 91.9044 366.94 90.5272V76.6909ZM371.977 56.856V98.535H368.977C368.261 98.535 367.807 98.186 367.618 97.4879L367.164 94.0076C365.939 95.479 364.542 96.6674 362.977 97.5729C361.408 98.4783 359.598 98.9309 357.541 98.9309C355.899 98.9309 354.407 98.6197 353.068 97.9972C351.727 97.3559 350.584 96.4222 349.642 95.196C348.699 93.97 347.972 92.4419 347.463 90.6121C346.951 88.7823 346.697 86.6791 346.697 84.3023C346.697 82.1895 346.982 80.2277 347.546 78.4168C348.114 76.587 348.925 75.0025 349.982 73.6633C351.038 72.324 352.332 71.2772 353.86 70.5224C355.408 69.749 357.145 69.3625 359.069 69.3625C360.823 69.3625 362.324 69.6641 363.569 70.2679C364.835 70.8525 365.957 71.6733 366.94 72.7294V56.856H371.977Z" fill="#202124"/>
<path d="M384.438 91.6307C385.363 92.8758 386.374 93.753 387.468 94.2623C388.58 94.7716 389.798 95.0261 391.119 95.0261C393.819 95.0261 395.884 94.0736 397.319 92.1685C398.753 90.2631 399.472 87.4243 399.472 83.6516C399.472 80.143 398.829 77.5681 397.546 75.9268C396.28 74.2669 394.47 73.4371 392.11 73.4371C390.468 73.4371 389.034 73.8143 387.806 74.5688C386.598 75.3233 385.476 76.389 384.438 77.7662V91.6307ZM384.438 74.0028C385.645 72.607 387.004 71.4939 388.515 70.664C390.042 69.834 391.8 69.4189 393.781 69.4189C395.461 69.4189 396.971 69.7397 398.31 70.381C399.669 71.0224 400.821 71.956 401.764 73.1823C402.707 74.3896 403.425 75.8608 403.914 77.5963C404.424 79.3318 404.681 81.2841 404.681 83.4535C404.681 85.7737 404.396 87.8865 403.831 89.7916C403.264 91.6967 402.442 93.3284 401.368 94.6867C400.312 96.0261 399.018 97.0729 397.49 97.8274C395.96 98.5632 394.243 98.9309 392.337 98.9309C390.448 98.9309 388.855 98.5821 387.551 97.8841C386.268 97.1674 385.146 96.1581 384.183 94.8565L383.928 97.4597C383.777 98.1764 383.343 98.535 382.627 98.535H379.37V56.856H384.438V74.0028Z" fill="#202124"/>
<path d="M426.029 85.6322C423.709 85.7078 421.727 85.8963 420.083 86.1982C418.462 86.4812 417.131 86.8584 416.092 87.3299C415.074 87.8016 414.327 88.3581 413.856 88.9994C413.402 89.6407 413.178 90.3577 413.178 91.15C413.178 91.9045 413.299 92.5551 413.546 93.1022C413.79 93.6493 414.121 94.1021 414.537 94.4605C414.97 94.7999 415.469 95.0547 416.037 95.2243C416.622 95.3752 417.244 95.4508 417.905 95.4508C418.793 95.4508 419.602 95.3659 420.338 95.1961C421.074 95.0076 421.765 94.7435 422.406 94.4038C423.066 94.0643 423.689 93.6586 424.274 93.1871C424.879 92.7156 425.464 92.1779 426.029 91.5743V85.6322ZM409.751 73.918C411.337 72.3901 413.044 71.2488 414.874 70.4943C416.705 69.7398 418.735 69.3625 420.961 69.3625C422.567 69.3625 423.991 69.6266 425.237 70.1548C426.482 70.683 427.529 71.4186 428.378 72.3619C429.228 73.3051 429.871 74.4461 430.305 75.7855C430.738 77.1249 430.955 78.5961 430.955 80.1996V98.5351H428.719C428.227 98.5351 427.851 98.4595 427.587 98.3085C427.322 98.1389 427.115 97.8181 426.964 97.3466L426.397 94.6301C425.643 95.3281 424.907 95.9506 424.188 96.4977C423.472 97.0258 422.718 97.4787 421.924 97.8559C421.132 98.2143 420.283 98.4877 419.377 98.6764C418.49 98.8838 417.499 98.9877 416.405 98.9877C415.29 98.9877 414.244 98.8367 413.261 98.5351C412.28 98.2143 411.42 97.7428 410.684 97.1201C409.968 96.4977 409.393 95.7149 408.96 94.7717C408.544 93.8096 408.337 92.6778 408.337 91.3763C408.337 90.2445 408.647 89.1597 409.27 88.1222C409.892 87.0658 410.903 86.1321 412.3 85.3209C413.694 84.51 415.517 83.8498 417.764 83.3405C420.008 82.8123 422.764 82.5104 426.029 82.435V80.1996C426.029 77.9736 425.547 76.2948 424.586 75.1631C423.623 74.0125 422.216 73.4371 420.368 73.4371C419.123 73.4371 418.074 73.5974 417.224 73.918C416.395 74.2198 415.669 74.5689 415.046 74.965C414.441 75.3423 413.914 75.6913 413.46 76.0118C413.026 76.3137 412.593 76.4647 412.157 76.4647C411.819 76.4647 411.526 76.3797 411.279 76.2099C411.035 76.0214 410.828 75.7948 410.656 75.5307L409.751 73.918Z" fill="#202124"/>
<path d="M458.024 74.965C457.872 75.1724 457.721 75.3326 457.57 75.446C457.418 75.5592 457.212 75.6156 456.947 75.6156C456.665 75.6156 456.352 75.5025 456.014 75.2762C455.674 75.031 455.248 74.7669 454.738 74.4839C454.249 74.2009 453.634 73.9464 452.898 73.7198C452.182 73.4746 451.294 73.3522 450.238 73.3522C448.823 73.3522 447.578 73.6067 446.501 74.116C445.425 74.6066 444.52 75.3233 443.783 76.2665C443.067 77.2098 442.518 78.3508 442.142 79.6902C441.782 81.0296 441.603 82.5292 441.603 84.1892C441.603 85.9247 441.802 87.4715 442.198 88.8295C442.593 90.1689 443.151 91.3009 443.869 92.2249C444.605 93.1304 445.483 93.8284 446.501 94.3188C447.54 94.7906 448.7 95.0262 449.983 95.0262C451.211 95.0262 452.22 94.8848 453.011 94.6018C453.805 94.2999 454.456 93.97 454.965 93.6114C455.495 93.2531 455.928 92.9323 456.269 92.6496C456.627 92.3477 456.975 92.1967 457.315 92.1967C457.731 92.1967 458.051 92.357 458.278 92.6778L459.693 94.5169C459.07 95.2903 458.364 95.9505 457.57 96.4976C456.778 97.0447 455.918 97.5069 454.993 97.8841C454.088 98.2425 453.135 98.5066 452.134 98.6764C451.135 98.8462 450.114 98.9309 449.078 98.9309C447.285 98.9309 445.614 98.601 444.066 97.9408C442.538 97.2806 441.207 96.3278 440.075 95.0829C438.943 93.8191 438.055 92.2723 437.415 90.4425C436.772 88.6128 436.452 86.5282 436.452 84.1892C436.452 82.0575 436.744 80.0864 437.329 78.2755C437.932 76.4646 438.801 74.9083 439.933 73.6067C441.086 72.2862 442.49 71.2583 444.152 70.5224C445.831 69.7869 447.757 69.4189 449.925 69.4189C451.945 69.4189 453.72 69.7491 455.248 70.4093C456.796 71.0506 458.165 71.9657 459.355 73.1541L458.024 74.965Z" fill="#202124"/>
<path d="M469.604 56.856V81.3879H470.907C471.283 81.3879 471.596 81.3408 471.84 81.2465C472.105 81.1331 472.377 80.9164 472.662 80.5956L481.721 70.8903C481.986 70.5695 482.258 70.3244 482.54 70.1548C482.843 69.966 483.239 69.8718 483.731 69.8718H488.289L477.73 81.1049C477.218 81.7463 476.671 82.2462 476.086 82.6046C476.426 82.8309 476.729 83.095 476.994 83.3969C477.276 83.6798 477.541 84.01 477.785 84.3872L488.995 98.535H484.494C484.061 98.535 483.683 98.469 483.362 98.3369C483.06 98.186 482.795 97.9219 482.571 97.5446L473.144 85.8019C472.859 85.4058 472.576 85.1513 472.294 85.0381C472.029 84.9061 471.613 84.8401 471.049 84.8401H469.604V98.535H464.536V56.856H469.604Z" fill="#202124"/>
<path d="M139.004 78.0641C138.686 77.6175 138.366 77.1712 137.984 76.7884L131.284 70.0926L83.495 22.3914C80.3049 19.2029 75.073 19.2029 71.8828 22.3914L30.6018 63.5879C30.0913 64.098 30.0913 64.8633 30.6018 65.3734C30.6656 65.4371 30.7294 65.5009 30.857 65.5646C39.2153 70.7301 50.3171 69.71 57.5907 62.4398L75.3281 44.7115C76.6682 43.3723 78.8375 43.3723 80.1773 44.7115L118.396 82.9105L128.668 93.1778C130.008 94.3894 131.986 94.3256 133.262 93.1778L136.516 89.9255L138.047 88.3951C138.622 87.821 139.132 87.1194 139.515 86.4181C140.791 83.8034 140.663 80.5511 139.004 78.0641Z" fill="#2ADD9B"/>
<path d="M120.5 94.7726L113.482 87.7576L79.9206 54.2139C78.6446 53.0661 76.6666 53.0661 75.3906 54.2139L62.3745 67.2869C52.7402 76.9166 37.8102 78.192 26.7721 71.0495C25.496 70.2205 23.8371 70.348 22.6887 71.4321L17.3929 76.7253C14.2028 79.9139 14.2028 85.1431 17.3929 88.3317L65.1182 136.033L71.8177 142.729C72.1367 143.048 72.5194 143.366 72.9024 143.622C72.9662 143.685 73.03 143.685 73.0937 143.749C75.582 145.407 78.8359 145.535 81.452 144.132C82.1539 143.749 82.8556 143.239 83.43 142.665L84.9611 141.135L88.2151 137.882C89.4276 136.607 89.4276 134.566 88.2151 133.291L77.9427 123.023L57.4618 102.553C56.1218 101.213 56.1218 99.0452 57.4618 97.7061C58.8016 96.367 60.9709 96.367 62.3107 97.7061L89.8103 125.191L93.0643 128.444C94.4041 129.656 96.382 129.592 97.658 128.444L100.912 125.191L102.699 123.406L105.953 120.154C107.165 118.878 107.165 116.837 105.953 115.562L102.699 112.31L95.6803 105.295L75.263 85.0156C73.9232 83.6763 73.9232 81.508 75.263 80.1689C76.6029 78.8298 78.7722 78.8298 80.1122 80.1689L107.612 107.654L110.865 110.907C112.206 112.118 114.183 112.055 115.46 110.907L118.713 107.654L120.5 105.869L123.754 102.617C124.966 101.341 124.966 99.3002 123.754 98.0249L120.5 94.7726Z" fill="url(#paint0_linear_305_50)"/>
</g>
<defs>
<linearGradient id="paint0_linear_305_50" x1="15.0003" y1="53.3531" x2="105.302" y2="161.293" gradientUnits="userSpaceOnUse">
<stop stop-color="#7DFD77"/>
<stop offset="1" stop-color="#30FCB1"/>
</linearGradient>
<clipPath id="clip0_305_50">
<rect width="474" height="126" fill="white" transform="translate(15 20)"/>
</clipPath>
</defs>
</svg>
