<svg viewBox="0 0 481 100" fill="none" xmlns="http://www.w3.org/2000/svg">
<mask id="mask0_1823_4" style="mask-type:luminance" maskUnits="userSpaceOnUse" x="0" y="12" width="71" height="88">
<path fill-rule="evenodd" clip-rule="evenodd" d="M0 12.6544H70.3287V100H0V12.6544Z" fill="white"/>
</mask>
<g mask="url(#mask0_1823_4)">
<path d="M-0.0100098 61.9504L21.019 61.5879L7.96652 100.01L58.3638 47.0891L28.2705 46.0018L32.9839 32.5903H54.3756L70.3286 12.6544H18.1185L-0.0100098 61.9504" fill="#281994"/>
</g>
<path d="M62.5183 0L52.3663 12.6263H70.0719L54.5418 32.2303L33.1501 32.0461L27.3489 47.6809H57.7737L81.7345 21.1755L82.0356 40.03L94.3018 25.5372V0H62.5183" fill="#F36009"/>
<path fill-rule="evenodd" clip-rule="evenodd" d="M324.59 66.7405C322.539 68.1844 320.146 68.9063 317.412 68.9063C314.433 68.9063 311.687 68.1477 309.172 66.6304C306.657 65.1132 304.643 62.9107 303.13 60.0231C301.616 57.1354 300.859 53.636 300.859 49.5247C300.859 45.4135 301.628 41.8896 303.166 38.953C304.704 36.0164 306.779 33.7528 309.392 32.1621C312.004 30.5714 314.897 29.7761 318.071 29.7761C320.073 29.7761 322.099 30.2411 324.15 31.171C326.201 32.1009 327.91 33.349 329.277 34.9152V14.9463H338.579V67.8051H329.277V61.5648C328.203 63.5715 326.641 65.2967 324.59 66.7405ZM135.11 49.3778V67.805H124.929V18.617H158.401V27.7938H135.11V40.201H154.373V49.3778H135.11ZM196.927 66.3C193.948 68.0375 190.652 68.9063 187.039 68.9063C183.475 68.9063 180.191 68.0375 177.188 66.3C174.185 64.5626 171.78 62.2255 169.973 59.2889C168.167 56.3523 167.263 53.0486 167.263 49.3779C167.263 45.7071 168.167 42.3912 169.973 39.4302C171.78 36.4691 174.185 34.1198 177.188 32.3823C180.191 30.6448 183.475 29.7761 187.039 29.7761C190.652 29.7761 193.948 30.6448 196.927 32.3823C199.905 34.1198 202.31 36.4691 204.141 39.4302C205.972 42.3912 206.888 45.7071 206.888 49.3779C206.888 53.0486 205.972 56.3523 204.141 59.2889C202.31 62.2255 199.905 64.5626 196.927 66.3ZM187.039 59.8762C185.281 59.8762 183.646 59.4724 182.132 58.6649C180.618 57.8573 179.41 56.6704 178.506 55.1042C177.603 53.538 177.151 51.6293 177.151 49.3779C177.151 47.1265 177.603 45.2177 178.506 43.6515C179.41 42.0853 180.618 40.8862 182.132 40.0542C183.646 39.2221 185.281 38.8061 187.039 38.8061C188.797 38.8061 190.433 39.2221 191.946 40.0542C193.46 40.8862 194.681 42.0853 195.609 43.6515C196.536 45.2177 197 47.1265 197 49.3779C197 51.6293 196.536 53.538 195.609 55.1042C194.681 56.6704 193.46 57.8573 191.946 58.6649C190.433 59.4724 188.797 59.8762 187.039 59.8762ZM240.177 66.7772C237.662 68.0497 234.818 68.686 231.644 68.686C228.421 68.686 225.553 68.0497 223.038 66.7772C220.523 65.5047 218.546 63.6816 217.105 61.3078C215.665 58.9341 214.945 56.1076 214.945 52.8284V30.7305H224.32L224.393 51.1398C224.393 54.0275 225.052 56.181 226.371 57.6004C227.689 59.0197 229.447 59.7294 231.644 59.7294C233.792 59.7294 235.538 59.0197 236.881 57.6004C238.224 56.181 238.895 54.0275 238.895 51.1398V30.7305H248.343V52.8284C248.343 56.1076 247.611 58.9341 246.146 61.3078C244.681 63.6816 242.692 65.5047 240.177 66.7772ZM268.266 67.805V44.3123C269.291 42.844 270.524 41.5714 271.965 40.4947C273.405 39.4179 274.955 38.8796 276.615 38.8796C278.715 38.8796 280.363 39.4913 281.559 40.7149C282.756 41.9385 283.354 43.7984 283.354 46.2945L283.427 67.805H292.729V45.0464C292.729 39.9563 291.459 36.1387 288.92 33.5937C286.381 31.0486 283.232 29.7761 279.472 29.7761C276.982 29.7761 274.772 30.4368 272.843 31.7583C270.915 33.0798 269.389 34.4991 268.266 36.0164V30.7305H258.964V67.805H268.266ZM319.756 59.5826C316.972 59.5826 314.738 58.6037 313.054 56.646C311.369 54.6882 310.527 52.3145 310.527 49.5247C310.527 47.6649 310.918 45.9396 311.699 44.349C312.48 42.7583 313.567 41.4613 314.958 40.458C316.35 39.4546 318.022 38.953 319.975 38.953C321.782 38.953 323.454 39.3568 324.992 40.1643C326.531 40.9719 327.959 42.0853 329.277 43.5047V48.7906C329.277 51.042 328.825 52.963 327.922 54.5536C327.019 56.1443 325.847 57.3801 324.406 58.2611C322.966 59.1421 321.416 59.5826 319.756 59.5826ZM374.944 67.3278C372.625 68.3801 370.074 68.9063 367.29 68.9063C363.628 68.9063 360.296 68.0742 357.293 66.4102C354.29 64.7461 351.897 62.4702 350.115 59.5826C348.333 56.6949 347.441 53.3912 347.441 49.6716C347.441 46.0497 348.247 42.7461 349.858 39.7605C351.47 36.775 353.692 34.3645 356.524 32.5292C359.356 30.6938 362.578 29.7761 366.192 29.7761C369.805 29.7761 372.918 30.5592 375.53 32.1254C378.143 33.6916 380.144 35.8573 381.536 38.6226C382.928 41.3879 383.624 44.5814 383.624 48.2033V52.1677H356.817C357.305 54.6638 358.526 56.6704 360.479 58.1877C362.432 59.7049 364.824 60.4635 367.657 60.4635C370.342 60.4635 372.784 59.9252 374.981 58.8484C377.178 57.7717 378.936 56.6704 380.254 55.5447L380.181 64.2077C379.009 65.2355 377.264 66.2756 374.944 67.3278ZM374.688 45.7805H356.963C357.549 43.3823 358.623 41.4735 360.186 40.0542C361.748 38.6348 363.677 37.9251 365.972 37.9251C368.072 37.9251 370 38.5736 371.758 39.8706C373.516 41.1676 374.493 43.1376 374.688 45.7805ZM401.422 47.102V67.805H392.12V30.7305H401.422V37.7049C402.691 35.5025 404.193 33.6671 405.926 32.1988C407.659 30.7305 409.625 29.9963 411.822 29.9963C413.141 29.9963 414.337 30.2166 415.411 30.6571V41.1554C413.849 40.2744 412.213 39.8339 410.504 39.8339C408.355 39.8339 406.573 40.5314 405.157 41.9263C403.741 43.3211 402.496 45.0464 401.422 47.102ZM431.891 67.8051V14.9463H422.589V67.8051H431.891ZM480.524 30.7305L453.644 85.4246H443.097L454.23 65.0887L438.263 30.7305H449.103L459.65 54.3701L469.904 30.7305H480.524Z" fill="#281994"/>
</svg>
