<svg width="504" height="166" viewBox="0 0 504 166" fill="none" xmlns="http://www.w3.org/2000/svg">
<g clip-path="url(#clip0_305_50)">
<mask id="mask0_305_50" style="mask-type:luminance" maskUnits="userSpaceOnUse" x="12" y="45" width="71" height="88">
<path fill-rule="evenodd" clip-rule="evenodd" d="M12 45.6543H82.3287V133H12V45.6543Z" fill="white"/>
</mask>
<g mask="url(#mask0_305_50)">
<path d="M11.99 94.9503L33.019 94.5878L19.9665 133.01L70.3638 80.089L40.2705 79.0017L44.9839 65.5902H66.3756L82.3286 45.6543H30.1185L11.99 94.9503Z" fill="#281994"/>
</g>
<path d="M74.5183 33L64.3663 45.6263H82.0719L66.5418 65.2303L45.1501 65.0461L39.3489 80.6809H69.7737L93.7345 54.1755L94.0356 73.03L106.302 58.5372V33H74.5183Z" fill="#F36009"/>
<path fill-rule="evenodd" clip-rule="evenodd" d="M336.59 99.7405C334.539 101.184 332.146 101.906 329.412 101.906C326.433 101.906 323.687 101.148 321.172 99.6304C318.657 98.1132 316.643 95.9107 315.13 93.0231C313.616 90.1354 312.859 86.636 312.859 82.5247C312.859 78.4135 313.628 74.8896 315.166 71.953C316.704 69.0164 318.779 66.7528 321.392 65.1621C324.004 63.5714 326.897 62.7761 330.071 62.7761C332.073 62.7761 334.099 63.2411 336.15 64.171C338.201 65.1009 339.91 66.349 341.277 67.9152V47.9463H350.579V100.805H341.277V94.5648C340.203 96.5715 338.641 98.2967 336.59 99.7405ZM147.11 82.3778V100.805H136.929V51.617H170.401V60.7938H147.11V73.201H166.373V82.3778H147.11ZM208.927 99.3C205.948 101.037 202.652 101.906 199.039 101.906C195.475 101.906 192.191 101.037 189.188 99.3C186.185 97.5626 183.78 95.2255 181.973 92.2889C180.167 89.3523 179.263 86.0486 179.263 82.3779C179.263 78.7071 180.167 75.3912 181.973 72.4302C183.78 69.4691 186.185 67.1198 189.188 65.3823C192.191 63.6448 195.475 62.7761 199.039 62.7761C202.652 62.7761 205.948 63.6448 208.927 65.3823C211.905 67.1198 214.31 69.4691 216.141 72.4302C217.972 75.3912 218.888 78.7071 218.888 82.3779C218.888 86.0486 217.972 89.3523 216.141 92.2889C214.31 95.2255 211.905 97.5626 208.927 99.3ZM199.039 92.8762C197.281 92.8762 195.646 92.4724 194.132 91.6649C192.618 90.8573 191.41 89.6704 190.506 88.1042C189.603 86.538 189.151 84.6293 189.151 82.3779C189.151 80.1265 189.603 78.2177 190.506 76.6515C191.41 75.0853 192.618 73.8862 194.132 73.0542C195.646 72.2221 197.281 71.8061 199.039 71.8061C200.797 71.8061 202.433 72.2221 203.946 73.0542C205.46 73.8862 206.681 75.0853 207.609 76.6515C208.536 78.2177 209 80.1265 209 82.3779C209 84.6293 208.536 86.538 207.609 88.1042C206.681 89.6704 205.46 90.8573 203.946 91.6649C202.433 92.4724 200.797 92.8762 199.039 92.8762ZM252.177 99.7772C249.662 101.05 246.818 101.686 243.644 101.686C240.421 101.686 237.553 101.05 235.038 99.7772C232.523 98.5047 230.546 96.6816 229.105 94.3078C227.665 91.9341 226.945 89.1076 226.945 85.8284V63.7305H236.32L236.393 84.1398C236.393 87.0275 237.052 89.181 238.371 90.6004C239.689 92.0197 241.447 92.7294 243.644 92.7294C245.792 92.7294 247.538 92.0197 248.881 90.6004C250.224 89.181 250.895 87.0275 250.895 84.1398V63.7305H260.343V85.8284C260.343 89.1076 259.611 91.9341 258.146 94.3078C256.681 96.6816 254.692 98.5047 252.177 99.7772ZM280.266 100.805V77.3123C281.291 75.844 282.524 74.5714 283.965 73.4947C285.405 72.4179 286.955 71.8796 288.615 71.8796C290.715 71.8796 292.363 72.4913 293.559 73.7149C294.756 74.9385 295.354 76.7984 295.354 79.2945L295.427 100.805H304.729V78.0464C304.729 72.9563 303.459 69.1387 300.92 66.5937C298.381 64.0486 295.232 62.7761 291.472 62.7761C288.982 62.7761 286.772 63.4368 284.843 64.7583C282.915 66.0798 281.389 67.4991 280.266 69.0164V63.7305H270.964V100.805H280.266ZM331.756 92.5826C328.972 92.5826 326.738 91.6037 325.054 89.646C323.369 87.6882 322.527 85.3145 322.527 82.5247C322.527 80.6649 322.918 78.9396 323.699 77.349C324.48 75.7583 325.567 74.4613 326.958 73.458C328.35 72.4546 330.022 71.953 331.975 71.953C333.782 71.953 335.454 72.3568 336.992 73.1643C338.531 73.9719 339.959 75.0853 341.277 76.5047V81.7906C341.277 84.042 340.825 85.963 339.922 87.5536C339.019 89.1443 337.847 90.3801 336.406 91.2611C334.966 92.1421 333.416 92.5826 331.756 92.5826ZM386.944 100.328C384.625 101.38 382.074 101.906 379.29 101.906C375.628 101.906 372.296 101.074 369.293 99.4102C366.29 97.7461 363.897 95.4702 362.115 92.5826C360.333 89.6949 359.441 86.3912 359.441 82.6716C359.441 79.0497 360.247 75.7461 361.858 72.7605C363.47 69.775 365.692 67.3645 368.524 65.5292C371.356 63.6938 374.578 62.7761 378.192 62.7761C381.805 62.7761 384.918 63.5592 387.53 65.1254C390.143 66.6916 392.144 68.8573 393.536 71.6226C394.928 74.3879 395.624 77.5814 395.624 81.2033V85.1677H368.817C369.305 87.6638 370.526 89.6704 372.479 91.1877C374.432 92.7049 376.824 93.4635 379.657 93.4635C382.342 93.4635 384.784 92.9252 386.981 91.8484C389.178 90.7717 390.936 89.6704 392.254 88.5447L392.181 97.2077C391.009 98.2355 389.264 99.2756 386.944 100.328ZM386.688 78.7805H368.963C369.549 76.3823 370.623 74.4735 372.186 73.0542C373.748 71.6348 375.677 70.9251 377.972 70.9251C380.072 70.9251 382 71.5736 383.758 72.8706C385.516 74.1676 386.493 76.1376 386.688 78.7805ZM413.422 80.102V100.805H404.12V63.7305H413.422V70.7049C414.691 68.5025 416.193 66.6671 417.926 65.1988C419.659 63.7305 421.625 62.9963 423.822 62.9963C425.141 62.9963 426.337 63.2166 427.411 63.6571V74.1554C425.849 73.2744 424.213 72.8339 422.504 72.8339C420.355 72.8339 418.573 73.5314 417.157 74.9263C415.741 76.3211 414.496 78.0464 413.422 80.102ZM443.891 100.805V47.9463H434.589V100.805H443.891ZM492.524 63.7305L465.644 118.425H455.097L466.23 98.0887L450.263 63.7305H461.103L471.65 87.3701L481.904 63.7305H492.524Z" fill="#281994"/>
</g>
<defs>
<clipPath id="clip0_305_50">
<rect width="481" height="100" fill="white" transform="translate(12 33)"/>
</clipPath>
</defs>
</svg>
