<svg width="504" height="166" viewBox="0 0 504 166" fill="none" xmlns="http://www.w3.org/2000/svg">
<path fill-rule="evenodd" clip-rule="evenodd" d="M144.89 10V112.256H117V10H144.89ZM197.268 59.7544V112.256H169.378V10H195.276L235.426 66.6471V10H263.316V112.256H237.265L197.268 59.7544ZM287.136 35.8501C282.539 43.7693 280.24 52.764 280.24 62.8341C280.24 72.4154 282.437 81.1167 286.83 88.9382C291.223 96.7596 297.454 102.968 305.525 107.563C313.698 112.06 323.199 114.309 334.029 114.309C344.551 114.309 353.899 112.109 362.072 107.71C370.245 103.212 376.579 97.0041 381.074 89.0848C385.672 81.0679 387.97 71.9754 387.97 61.8075C387.97 52.2263 385.774 43.5249 381.381 35.7035C377.09 27.882 370.858 21.7226 362.685 17.2253C354.614 12.728 345.062 10.4793 334.029 10.4793C323.71 10.4793 314.464 12.728 306.292 17.2253C298.119 21.6249 291.733 27.8331 287.136 35.8501ZM321.463 36.5834C325.345 34.0414 329.636 32.7704 334.335 32.7704C341.895 32.7704 347.923 35.5079 352.418 40.9829C357.015 46.3602 359.314 53.3017 359.314 61.8075C359.314 71.4866 356.913 78.9659 352.111 84.2453C347.412 89.427 341.333 92.0179 333.875 92.0179C326.111 92.0179 319.981 89.2804 315.486 83.8054C311.093 78.3304 308.897 71.2911 308.897 62.6875C308.897 56.8214 310.02 51.6397 312.268 47.1423C314.618 42.5472 317.683 39.0276 321.463 36.5834ZM119.576 137.19C119.882 136.883 120.036 136.516 120.036 136.086C120.036 135.672 119.882 135.32 119.576 135.028C119.284 134.722 118.924 134.568 118.495 134.568C118.081 134.568 117.728 134.722 117.437 135.028C117.146 135.32 117 135.672 117 136.086C117 136.516 117.138 136.883 117.414 137.19C117.705 137.481 118.066 137.627 118.495 137.627C118.924 137.627 119.284 137.481 119.576 137.19ZM119.829 150.574V139.421H117.23V150.574H119.829ZM125.038 142.778C126.28 141.751 127.369 141.238 128.304 141.238C129.454 141.238 130.029 142.012 130.029 143.56V150.574H132.628V143.399C132.628 142.05 132.336 140.992 131.754 140.226C131.171 139.444 130.228 139.053 128.925 139.053C128.25 139.053 127.53 139.206 126.763 139.513C125.997 139.819 125.291 140.233 124.647 140.755L124.188 139.421H122.463V150.574H125.038V142.778ZM138.256 139.513H140.279L141.061 141.491H138.256V146.803C138.256 147.401 138.386 147.884 138.647 148.252C138.923 148.604 139.329 148.781 139.866 148.781C140.218 148.781 140.601 148.689 141.015 148.505L141.728 150.414C141.498 150.567 141.176 150.697 140.762 150.804C140.364 150.927 139.996 150.988 139.659 150.988C138.417 150.988 137.443 150.666 136.738 150.023C136.033 149.379 135.68 148.451 135.68 147.24V141.491H134.139V139.513H135.68V136.776L138.256 136.27V139.513ZM151.947 140.755C151.104 139.666 149.862 139.122 148.222 139.122C147.102 139.122 146.129 139.367 145.301 139.858C144.488 140.348 143.86 141.038 143.415 141.928C142.986 142.801 142.771 143.821 142.771 144.986C142.771 146.795 143.3 148.229 144.358 149.287C145.431 150.329 146.98 150.85 149.004 150.85C150.506 150.85 151.878 150.421 153.12 149.563L152.338 147.677C151.679 148.014 151.112 148.267 150.636 148.436C150.176 148.589 149.647 148.666 149.05 148.666C146.903 148.666 145.715 147.669 145.485 145.676H153.212V144.917C153.212 143.231 152.79 141.843 151.947 140.755ZM146.359 142.02C146.819 141.56 147.417 141.33 148.153 141.33C148.873 141.33 149.448 141.552 149.877 141.997C150.307 142.441 150.59 143.093 150.728 143.951H145.531C145.638 143.123 145.914 142.479 146.359 142.02ZM161.693 141.491C161.141 141.491 160.497 141.682 159.761 142.066C159.025 142.449 158.351 142.916 157.738 143.468V150.574H155.162V139.421H156.542L157.393 141.261C157.945 140.801 158.573 140.379 159.278 139.996C159.999 139.612 160.628 139.421 161.164 139.421L161.693 141.491ZM165.823 142.778C167.064 141.751 168.153 141.238 169.088 141.238C170.238 141.238 170.813 142.012 170.813 143.56V150.574H173.412V143.399C173.412 142.05 173.12 140.992 172.538 140.226C171.955 139.444 171.012 139.053 169.709 139.053C169.035 139.053 168.314 139.206 167.547 139.513C166.781 139.819 166.076 140.233 165.432 140.755L164.972 139.421H163.247V150.574H165.823V142.778ZM180.719 139.122C182.359 139.122 183.601 139.666 184.444 140.755C185.287 141.843 185.709 143.231 185.709 144.917V145.676H177.982C178.212 147.669 179.4 148.666 181.547 148.666C182.144 148.666 182.673 148.589 183.133 148.436C183.609 148.267 184.176 148.014 184.835 147.677L185.617 149.563C184.375 150.421 183.003 150.85 181.501 150.85C179.477 150.85 177.928 150.329 176.855 149.287C175.797 148.229 175.268 146.795 175.268 144.986C175.268 143.821 175.483 142.801 175.912 141.928C176.357 141.038 176.985 140.348 177.798 139.858C178.626 139.367 179.599 139.122 180.719 139.122ZM180.65 141.33C179.914 141.33 179.316 141.56 178.856 142.02C178.411 142.479 178.135 143.123 178.028 143.951H183.225C183.087 143.093 182.804 142.441 182.374 141.997C181.945 141.552 181.37 141.33 180.65 141.33ZM192.764 139.513H190.741V136.27L188.165 136.776V139.513H186.624V141.491H188.165V147.24C188.165 148.451 188.518 149.379 189.223 150.023C189.928 150.666 190.902 150.988 192.143 150.988C192.481 150.988 192.849 150.927 193.247 150.804C193.661 150.697 193.983 150.567 194.213 150.414L193.5 148.505C193.086 148.689 192.703 148.781 192.35 148.781C191.814 148.781 191.408 148.604 191.132 148.252C190.871 147.884 190.741 147.401 190.741 146.803V141.491H193.546L192.764 139.513ZM207.02 141.238C206.085 141.238 204.996 141.751 203.755 142.778V150.574H201.179V139.421H202.904L203.364 140.755C204.007 140.233 204.713 139.819 205.479 139.513C206.246 139.206 206.966 139.053 207.641 139.053C208.944 139.053 209.887 139.444 210.47 140.226C211.052 140.992 211.344 142.05 211.344 143.399V150.574H208.745V143.56C208.745 142.012 208.17 141.238 207.02 141.238ZM214.925 142.227C216.06 141.721 217.133 141.468 218.145 141.468C219.463 141.468 220.138 142.242 220.168 143.79H217.731C216.489 143.79 215.485 144.097 214.718 144.71C213.967 145.323 213.591 146.19 213.591 147.309C213.591 148.382 213.921 149.241 214.58 149.885C215.255 150.529 216.236 150.85 217.524 150.85C218.076 150.85 218.628 150.72 219.18 150.46C219.731 150.199 220.222 149.862 220.651 149.448L221.042 150.574H222.767V143.123C222.767 142.372 222.56 141.698 222.146 141.1C221.732 140.486 221.165 140.003 220.444 139.651C219.739 139.298 218.957 139.122 218.099 139.122C217.577 139.122 216.895 139.222 216.052 139.421C215.224 139.62 214.611 139.85 214.212 140.111L214.925 142.227ZM216.328 146.044C216.665 145.691 217.117 145.515 217.685 145.515H220.191V147.516C219.808 147.914 219.379 148.229 218.904 148.459C218.428 148.689 217.953 148.804 217.478 148.804C216.972 148.804 216.573 148.658 216.282 148.367C215.991 148.06 215.845 147.708 215.845 147.309C215.845 146.803 216.006 146.381 216.328 146.044ZM228.425 139.513H230.449L231.231 141.491H228.425V146.803C228.425 147.401 228.556 147.884 228.816 148.252C229.092 148.604 229.499 148.781 230.035 148.781C230.388 148.781 230.771 148.689 231.185 148.505L231.898 150.414C231.668 150.567 231.346 150.697 230.932 150.804C230.534 150.927 230.166 150.988 229.828 150.988C228.586 150.988 227.613 150.666 226.908 150.023C226.202 149.379 225.85 148.451 225.85 147.24V141.491H224.309V139.513H225.85V136.776L228.425 136.27V139.513ZM235.977 137.19C236.283 136.883 236.437 136.516 236.437 136.086C236.437 135.672 236.283 135.32 235.977 135.028C235.685 134.722 235.325 134.568 234.896 134.568C234.482 134.568 234.129 134.722 233.838 135.028C233.547 135.32 233.401 135.672 233.401 136.086C233.401 136.516 233.539 136.883 233.815 137.19C234.106 137.481 234.467 137.627 234.896 137.627C235.325 137.627 235.685 137.481 235.977 137.19ZM236.23 150.574V139.421H233.631V150.574H236.23ZM248.5 139.421L244.199 150.574H241.899L237.76 139.835L240.267 139.007L243.095 146.849L245.809 139.421H248.5ZM258.556 140.755C257.713 139.666 256.471 139.122 254.831 139.122C253.712 139.122 252.738 139.367 251.91 139.858C251.098 140.348 250.469 141.038 250.024 141.928C249.595 142.801 249.38 143.821 249.38 144.986C249.38 146.795 249.909 148.229 250.967 149.287C252.04 150.329 253.589 150.85 255.613 150.85C257.115 150.85 258.487 150.421 259.729 149.563L258.947 147.677C258.288 148.014 257.721 148.267 257.245 148.436C256.786 148.589 256.257 148.666 255.659 148.666C253.512 148.666 252.324 147.669 252.094 145.676H259.821V144.917C259.821 143.231 259.4 141.843 258.556 140.755ZM252.968 142.02C253.428 141.56 254.026 141.33 254.762 141.33C255.482 141.33 256.057 141.552 256.487 141.997C256.916 142.441 257.2 143.093 257.337 143.951H252.14C252.247 143.123 252.523 142.479 252.968 142.02ZM272.04 150.873C270.875 150.873 269.863 150.628 269.005 150.138C268.146 149.647 267.479 148.965 267.004 148.091C266.544 147.202 266.314 146.167 266.314 144.986C266.314 143.821 266.544 142.801 267.004 141.928C267.479 141.038 268.154 140.348 269.028 139.858C269.902 139.367 270.921 139.122 272.086 139.122C273.251 139.122 274.263 139.367 275.122 139.858C275.996 140.333 276.663 141.015 277.123 141.905C277.598 142.794 277.836 143.821 277.836 144.986C277.836 146.151 277.598 147.179 277.123 148.068C276.647 148.957 275.973 149.647 275.099 150.138C274.225 150.628 273.205 150.873 272.04 150.873ZM275.168 145.009C275.168 143.921 274.884 143.039 274.317 142.364C273.765 141.675 273.021 141.33 272.086 141.33C271.166 141.33 270.415 141.675 269.833 142.364C269.265 143.054 268.974 143.928 268.959 144.986C268.959 146.075 269.235 146.956 269.787 147.631C270.354 148.305 271.105 148.643 272.04 148.643C272.975 148.643 273.727 148.298 274.294 147.608C274.877 146.918 275.168 146.052 275.168 145.009ZM284.382 142.066C285.118 141.682 285.762 141.491 286.314 141.491L285.785 139.421C285.248 139.421 284.62 139.612 283.899 139.996C283.194 140.379 282.565 140.801 282.013 141.261L281.162 139.421H279.783V150.574H282.358V143.468C282.972 142.916 283.646 142.449 284.382 142.066ZM297.802 151.333C297.802 152.729 297.296 153.832 296.285 154.645C295.288 155.458 293.916 155.864 292.168 155.864C291.616 155.864 290.896 155.757 290.006 155.542C289.132 155.327 288.442 155.044 287.937 154.691L288.718 152.828C289.408 153.15 289.999 153.388 290.489 153.541C290.995 153.694 291.532 153.771 292.099 153.771C293.019 153.771 293.763 153.549 294.33 153.104C294.912 152.675 295.204 152.077 295.204 151.31V150.115C294.805 150.36 294.391 150.544 293.962 150.666C293.533 150.804 293.126 150.873 292.743 150.873C291.608 150.873 290.62 150.628 289.776 150.138C288.948 149.647 288.305 148.957 287.845 148.068C287.4 147.179 287.178 146.144 287.178 144.963C287.178 143.798 287.4 142.778 287.845 141.905C288.305 141.015 288.956 140.333 289.799 139.858C290.658 139.367 291.654 139.122 292.789 139.122C293.249 139.122 293.763 139.229 294.33 139.444C294.897 139.658 295.403 139.95 295.848 140.318L296.4 139.421H297.802V151.333ZM295.204 142.249C294.836 141.928 294.46 141.698 294.077 141.56C293.694 141.406 293.264 141.33 292.789 141.33C291.869 141.33 291.141 141.667 290.604 142.341C290.083 143.016 289.822 143.882 289.822 144.94C289.822 146.059 290.083 146.956 290.604 147.631C291.141 148.305 291.869 148.643 292.789 148.643C293.249 148.643 293.671 148.574 294.054 148.436C294.437 148.282 294.82 148.045 295.204 147.723V142.249ZM301.636 142.227C302.771 141.721 303.844 141.468 304.856 141.468C306.174 141.468 306.849 142.242 306.88 143.79H304.442C303.2 143.79 302.196 144.097 301.429 144.71C300.678 145.323 300.302 146.19 300.302 147.309C300.302 148.382 300.632 149.241 301.291 149.885C301.966 150.529 302.947 150.85 304.235 150.85C304.787 150.85 305.339 150.72 305.891 150.46C306.443 150.199 306.933 149.862 307.363 149.448L307.754 150.574H309.478V143.123C309.478 142.372 309.271 141.698 308.857 141.1C308.443 140.486 307.876 140.003 307.156 139.651C306.45 139.298 305.668 139.122 304.81 139.122C304.289 139.122 303.606 139.222 302.763 139.421C301.935 139.62 301.322 139.85 300.923 140.111L301.636 142.227ZM303.039 146.044C303.376 145.691 303.829 145.515 304.396 145.515H306.903V147.516C306.519 147.914 306.09 148.229 305.615 148.459C305.139 148.689 304.664 148.804 304.189 148.804C303.683 148.804 303.284 148.658 302.993 148.367C302.702 148.06 302.556 147.708 302.556 147.309C302.556 146.803 302.717 146.381 303.039 146.044ZM317.896 141.238C316.961 141.238 315.873 141.751 314.631 142.778V150.574H312.055V139.421H313.78L314.24 140.755C314.884 140.233 315.589 139.819 316.356 139.513C317.122 139.206 317.843 139.053 318.517 139.053C319.82 139.053 320.763 139.444 321.346 140.226C321.929 140.992 322.22 142.05 322.22 143.399V150.574H319.621V143.56C319.621 142.012 319.046 141.238 317.896 141.238ZM327.112 137.19C327.419 136.883 327.572 136.516 327.572 136.086C327.572 135.672 327.419 135.32 327.112 135.028C326.821 134.722 326.461 134.568 326.031 134.568C325.617 134.568 325.265 134.722 324.973 135.028C324.682 135.32 324.536 135.672 324.536 136.086C324.536 136.516 324.674 136.883 324.95 137.19C325.242 137.481 325.602 137.627 326.031 137.627C326.461 137.627 326.821 137.481 327.112 137.19ZM327.365 150.574V139.421H324.766V150.574H327.365ZM329.401 139.421H338.117L338.255 140.87L332.253 148.505H338.163L338.393 150.574H329.355L329.033 149.218L334.944 141.537H329.93L329.401 139.421ZM341.118 142.227C342.252 141.721 343.326 141.468 344.337 141.468C345.656 141.468 346.331 142.242 346.361 143.79H343.923C342.682 143.79 341.677 144.097 340.911 144.71C340.16 145.323 339.784 146.19 339.784 147.309C339.784 148.382 340.114 149.241 340.773 149.885C341.447 150.529 342.429 150.85 343.716 150.85C344.268 150.85 344.82 150.72 345.372 150.46C345.924 150.199 346.415 149.862 346.844 149.448L347.235 150.574H348.96V143.123C348.96 142.372 348.753 141.698 348.339 141.1C347.925 140.486 347.358 140.003 346.637 139.651C345.932 139.298 345.15 139.122 344.291 139.122C343.77 139.122 343.088 139.222 342.245 139.421C341.417 139.62 340.804 139.85 340.405 140.111L341.118 142.227ZM342.521 146.044C342.858 145.691 343.31 145.515 343.877 145.515H346.384V147.516C346.001 147.914 345.572 148.229 345.096 148.459C344.621 148.689 344.146 148.804 343.671 148.804C343.165 148.804 342.766 148.658 342.475 148.367C342.183 148.06 342.038 147.708 342.038 147.309C342.038 146.803 342.199 146.381 342.521 146.044ZM354.618 139.513H356.642L357.424 141.491H354.618V146.803C354.618 147.401 354.749 147.884 355.009 148.252C355.285 148.604 355.691 148.781 356.228 148.781C356.581 148.781 356.964 148.689 357.378 148.505L358.091 150.414C357.861 150.567 357.539 150.697 357.125 150.804C356.726 150.927 356.358 150.988 356.021 150.988C354.779 150.988 353.806 150.666 353.1 150.023C352.395 149.379 352.043 148.451 352.043 147.24V141.491H350.502V139.513H352.043V136.776L354.618 136.27V139.513ZM362.169 137.19C362.476 136.883 362.629 136.516 362.629 136.086C362.629 135.672 362.476 135.32 362.169 135.028C361.878 134.722 361.518 134.568 361.089 134.568C360.675 134.568 360.322 134.722 360.031 135.028C359.739 135.32 359.594 135.672 359.594 136.086C359.594 136.516 359.732 136.883 360.008 137.19C360.299 137.481 360.659 137.627 361.089 137.627C361.518 137.627 361.878 137.481 362.169 137.19ZM362.422 150.574V139.421H359.824V150.574H362.422ZM370.093 150.873C368.928 150.873 367.916 150.628 367.057 150.138C366.199 149.647 365.532 148.965 365.056 148.091C364.597 147.202 364.367 146.167 364.367 144.986C364.367 143.821 364.597 142.801 365.056 141.928C365.532 141.038 366.206 140.348 367.08 139.858C367.954 139.367 368.974 139.122 370.139 139.122C371.304 139.122 372.316 139.367 373.174 139.858C374.048 140.333 374.715 141.015 375.175 141.905C375.651 142.794 375.888 143.821 375.888 144.986C375.888 146.151 375.651 147.179 375.175 148.068C374.7 148.957 374.025 149.647 373.152 150.138C372.278 150.628 371.258 150.873 370.093 150.873ZM373.221 145.009C373.221 143.921 372.937 143.039 372.37 142.364C371.818 141.675 371.074 141.33 370.139 141.33C369.219 141.33 368.468 141.675 367.885 142.364C367.318 143.054 367.027 143.928 367.011 144.986C367.011 146.075 367.287 146.956 367.839 147.631C368.406 148.305 369.158 148.643 370.093 148.643C371.028 148.643 371.779 148.298 372.347 147.608C372.929 146.918 373.221 146.052 373.221 145.009ZM380.411 142.778C381.653 141.751 382.741 141.238 383.677 141.238C384.826 141.238 385.401 142.012 385.401 143.56V150.574H388V143.399C388 142.05 387.709 140.992 387.126 140.226C386.543 139.444 385.601 139.053 384.297 139.053C383.623 139.053 382.902 139.206 382.136 139.513C381.369 139.819 380.664 140.233 380.02 140.755L379.56 139.421H377.835V150.574H380.411V142.778Z" fill="black"/>
</svg>
