<svg viewBox="0 0 153 100" fill="none" xmlns="http://www.w3.org/2000/svg">
<mask id="mask0_336_5" style="mask-type:luminance" maskUnits="userSpaceOnUse" x="0" y="0" width="153" height="100">
<path d="M152.742 0H0V100H152.742V0Z" fill="white"/>
</mask>
<g mask="url(#mask0_336_5)">
<path d="M20.1758 19.9413V80H3.87085V19.9413H20.1758ZM81.5196 19.9413V80H67.9125L46.2117 48.4458H45.8597V80H29.5547V19.9413H43.3963L64.7454 51.3782H65.2146V19.9413H81.5196ZM149.066 49.9707C149.066 56.657 147.766 62.2971 145.165 66.8915C142.565 71.4663 139.056 74.9365 134.637 77.3021C130.219 79.6481 125.292 80.8211 119.857 80.8211C114.383 80.8211 109.437 79.6384 105.019 77.2728C100.62 74.8876 97.1204 71.4076 94.52 66.8329C91.9394 62.2386 90.6491 56.6178 90.6491 49.9707C90.6491 43.2845 91.9394 37.654 94.52 33.0792C97.1204 28.4849 100.62 25.0147 105.019 22.6686C109.437 20.3031 114.383 19.1202 119.857 19.1202C125.292 19.1202 130.219 20.3031 134.637 22.6686C139.056 25.0147 142.565 28.4849 145.165 33.0792C147.766 37.654 149.066 43.2845 149.066 49.9707ZM132.291 49.9707C132.291 46.3734 131.812 43.3431 130.854 40.8799C129.916 38.397 128.518 36.52 126.661 35.2492C124.823 33.9589 122.555 33.3137 119.857 33.3137C117.159 33.3137 114.882 33.9589 113.025 35.2492C111.187 36.52 109.789 38.397 108.831 40.8799C107.893 43.3431 107.423 46.3734 107.423 49.9707C107.423 53.5679 107.893 56.6081 108.831 59.091C109.789 61.5542 111.187 63.4311 113.025 64.7215C114.882 65.9923 117.159 66.6276 119.857 66.6276C122.555 66.6276 124.823 65.9923 126.661 64.7215C128.518 63.4311 129.916 61.5542 130.854 59.091C131.812 56.6081 132.291 53.5679 132.291 49.9707Z" fill="black"/>
<path d="M5.34438 86.3638V93.871H4.21167V86.3638H5.34438ZM8.20844 90.528V93.871H7.11241V88.2405H8.16446V89.157H8.23411C8.36364 88.8588 8.56646 88.6192 8.84262 88.4384C9.1212 88.2576 9.4719 88.1671 9.89467 88.1671C10.2783 88.1671 10.6144 88.2478 10.9027 88.4091C11.1911 88.5679 11.4147 88.805 11.5736 89.1202C11.7324 89.4355 11.8118 89.8254 11.8118 90.2896V93.871H10.7158V90.4217C10.7158 90.0134 10.6095 89.6946 10.3969 89.4649C10.1843 89.2326 9.89222 89.1167 9.52077 89.1167C9.2666 89.1167 9.04056 89.1717 8.84262 89.2815C8.64711 89.3915 8.49193 89.5528 8.37707 89.7654C8.26465 89.9755 8.20844 90.2297 8.20844 90.528ZM16.1165 88.2405V89.1202H13.041V88.2405H16.1165ZM13.8658 86.8915H14.9618V92.2178C14.9618 92.4304 14.9936 92.5905 15.0571 92.6979C15.1207 92.8031 15.2025 92.8752 15.3027 92.9142C15.4054 92.9509 15.5166 92.9692 15.6363 92.9692C15.7243 92.9692 15.8013 92.9631 15.8672 92.9508C15.9332 92.9388 15.9846 92.9289 16.0212 92.9217L16.2192 93.827C16.1556 93.8515 16.0652 93.8759 15.9479 93.9004C15.8306 93.9271 15.684 93.9418 15.508 93.9444C15.2196 93.9492 14.9508 93.8979 14.7016 93.7904C14.4523 93.6828 14.2507 93.5167 14.0967 93.2918C13.9428 93.067 13.8658 92.7847 13.8658 92.445V86.8915ZM19.9016 93.9847C19.3469 93.9847 18.8692 93.8662 18.4683 93.6291C18.07 93.3896 17.7621 93.0536 17.5445 92.621C17.3295 92.186 17.2219 91.6765 17.2219 91.0925C17.2219 90.5157 17.3295 90.0073 17.5445 89.5675C17.7621 89.1276 18.0651 88.7842 18.4537 88.5375C18.8446 88.2907 19.3016 88.1671 19.8246 88.1671C20.1424 88.1671 20.4503 88.2197 20.7483 88.3249C21.0466 88.4299 21.3142 88.5949 21.5511 88.8197C21.7882 89.0446 21.9751 89.3365 22.1121 89.6959C22.2488 90.0526 22.3172 90.4863 22.3172 90.9971V91.3857H17.8414V90.5646H21.2432C21.2432 90.2762 21.1846 90.0209 21.0672 89.7984C20.95 89.5736 20.785 89.3965 20.5724 89.267C20.3622 89.1375 20.1154 89.0726 19.8319 89.0726C19.524 89.0726 19.2553 89.1484 19.0254 89.2999C18.7982 89.4489 18.6222 89.6444 18.4977 89.8863C18.3754 90.1258 18.3143 90.3862 18.3143 90.6671V91.3088C18.3143 91.685 18.3803 92.0052 18.5122 92.2691C18.6467 92.5331 18.8337 92.7347 19.0732 92.8739C19.3127 93.0109 19.5924 93.0792 19.9125 93.0792C20.1203 93.0792 20.3096 93.0499 20.4808 92.9912C20.6519 92.9302 20.7996 92.8397 20.9243 92.72C21.049 92.6002 21.1443 92.4525 21.2103 92.2765L22.2477 92.4634C22.1645 92.7689 22.0154 93.0365 21.8004 93.2662C21.5879 93.4934 21.3203 93.6707 20.9977 93.7976C20.6775 93.9223 20.3122 93.9847 19.9016 93.9847ZM23.7398 93.871V88.2405H24.7992V89.1349H24.8579C24.9604 88.832 25.1414 88.5936 25.4004 88.4202C25.6619 88.2442 25.9575 88.1562 26.2875 88.1562C26.3559 88.1562 26.4366 88.1586 26.5295 88.1636C26.6248 88.1684 26.6993 88.1746 26.753 88.1818V89.2302C26.709 89.2181 26.6308 89.2046 26.5183 89.1899C26.4059 89.1728 26.2937 89.1642 26.1812 89.1642C25.9221 89.1642 25.6913 89.2192 25.4883 89.3292C25.288 89.4368 25.1292 89.587 25.0119 89.78C24.8945 89.9707 24.8359 90.1883 24.8359 90.4326V93.871H23.7398ZM29.004 90.528V93.871H27.908V88.2405H28.96V89.157H29.0296C29.1592 88.8588 29.3621 88.6192 29.6382 88.4384C29.9167 88.2576 30.2674 88.1671 30.6903 88.1671C31.0738 88.1671 31.41 88.2478 31.6983 88.4091C31.9867 88.5679 32.2103 88.805 32.3692 89.1202C32.528 89.4355 32.6074 89.8254 32.6074 90.2896V93.871H31.5114V90.4217C31.5114 90.0134 31.405 89.6946 31.1924 89.4649C30.9798 89.2326 30.6879 89.1167 30.3163 89.1167C30.0622 89.1167 29.8361 89.1717 29.6382 89.2815C29.4427 89.3915 29.2875 89.5528 29.1727 89.7654C29.0603 89.9755 29.004 90.2297 29.004 90.528ZM36.7104 93.9847C36.1558 93.9847 35.678 93.8662 35.2772 93.6291C34.8788 93.3896 34.5709 93.0536 34.3533 92.621C34.1383 92.186 34.0308 91.6765 34.0308 91.0925C34.0308 90.5157 34.1383 90.0073 34.3533 89.5675C34.5709 89.1276 34.874 88.7842 35.2625 88.5375C35.6535 88.2907 36.1104 88.1671 36.6335 88.1671C36.9512 88.1671 37.2592 88.2197 37.5572 88.3249C37.8554 88.4299 38.123 88.5949 38.36 88.8197C38.5971 89.0446 38.784 89.3365 38.9209 89.6959C39.0577 90.0526 39.1261 90.4863 39.1261 90.9971V91.3857H34.6503V90.5646H38.0521C38.0521 90.2762 37.9935 90.0209 37.8761 89.7984C37.7588 89.5736 37.5938 89.3965 37.3812 89.267C37.1711 89.1375 36.9243 89.0726 36.6408 89.0726C36.3329 89.0726 36.0642 89.1484 35.8343 89.2999C35.6071 89.4489 35.4311 89.6444 35.3066 89.8863C35.1843 90.1258 35.1232 90.3862 35.1232 90.6671V91.3088C35.1232 91.685 35.1892 92.0052 35.3211 92.2691C35.4556 92.5331 35.6425 92.7347 35.8821 92.8739C36.1216 93.0109 36.4012 93.0792 36.7214 93.0792C36.9292 93.0792 37.1185 93.0499 37.2896 92.9912C37.4608 92.9302 37.6085 92.8397 37.7332 92.72C37.8579 92.6002 37.9532 92.4525 38.0192 92.2765L39.0566 92.4634C38.9733 92.7689 38.8243 93.0365 38.6093 93.2662C38.3967 93.4934 38.1292 93.6707 37.8066 93.7976C37.4864 93.9223 37.1211 93.9847 36.7104 93.9847ZM43.1771 88.2405V89.1202H40.1014V88.2405H43.1771ZM40.9262 86.8915H42.0224V92.2178C42.0224 92.4304 42.0542 92.5905 42.1175 92.6979C42.1811 92.8031 42.263 92.8752 42.3632 92.9142C42.4659 92.9509 42.5771 92.9692 42.6967 92.9692C42.7848 92.9692 42.8617 92.9631 42.9277 92.9508C42.9937 92.9388 43.045 92.9289 43.0817 92.9217L43.2796 93.827C43.2161 93.8515 43.1256 93.8759 43.0083 93.9004C42.8911 93.9271 42.7445 93.9418 42.5685 93.9444C42.2801 93.9492 42.0112 93.8979 41.7621 93.7904C41.5127 93.6828 41.3111 93.5167 41.1572 93.2918C41.0032 93.067 40.9262 92.7847 40.9262 92.445V86.8915ZM53.6816 86.3638V93.871H52.6404L48.8245 88.3652H48.7548V93.871H47.6222V86.3638H48.6706L52.4901 91.8768H52.5598V86.3638H53.6816ZM57.0909 93.9957C56.7342 93.9957 56.4116 93.9297 56.1232 93.7976C55.8348 93.6633 55.6063 93.4691 55.4377 93.2149C55.2714 92.9607 55.1883 92.6491 55.1883 92.28C55.1883 91.9625 55.2495 91.7009 55.3717 91.4957C55.4938 91.2904 55.6588 91.1278 55.8666 91.0081C56.0743 90.8884 56.3064 90.7979 56.563 90.7368C56.8196 90.6757 57.0811 90.6294 57.3475 90.5976C57.6848 90.5584 57.9585 90.5267 58.1687 90.5023C58.3788 90.4754 58.5316 90.4326 58.6267 90.3739C58.7221 90.3154 58.7698 90.22 58.7698 90.0879V90.0623C58.7698 89.7423 58.6793 89.4942 58.4985 89.3183C58.3201 89.1423 58.0537 89.0542 57.6993 89.0542C57.3304 89.0542 57.0396 89.1362 56.8269 89.2999C56.6167 89.4612 56.4714 89.6409 56.3908 89.8388L55.3606 89.6041C55.4829 89.262 55.6613 88.9859 55.8959 88.7757C56.1329 88.5631 56.4054 88.4091 56.7133 88.3138C57.0213 88.216 57.3451 88.1671 57.6848 88.1671C57.9096 88.1671 58.1479 88.1941 58.3995 88.2478C58.6537 88.2992 58.8908 88.3944 59.1106 88.5338C59.333 88.6731 59.5151 88.8723 59.6569 89.1313C59.7987 89.388 59.8695 89.7215 59.8695 90.132V93.871H58.7992V93.1012H58.7551C58.6843 93.2429 58.5779 93.3823 58.4363 93.5191C58.2945 93.656 58.1124 93.7696 57.89 93.86C57.6677 93.9504 57.4013 93.9957 57.0909 93.9957ZM57.3292 93.1159C57.6322 93.1159 57.8913 93.056 58.1063 92.9363C58.3238 92.8165 58.4887 92.66 58.6011 92.467C58.7161 92.2715 58.7735 92.0626 58.7735 91.8402V91.1144C58.7343 91.1536 58.6585 91.1902 58.5461 91.2244C58.4363 91.2562 58.3103 91.2842 58.1687 91.3088C58.0269 91.3307 57.8888 91.3515 57.7543 91.371C57.62 91.3881 57.5075 91.4028 57.4171 91.415C57.2045 91.4418 57.0103 91.4871 56.8343 91.5507C56.6608 91.6142 56.5214 91.7059 56.4164 91.8255C56.3138 91.9428 56.2624 92.0992 56.2624 92.2947C56.2624 92.566 56.3627 92.7713 56.563 92.9105C56.7633 93.0475 57.0188 93.1159 57.3292 93.1159ZM64.1642 88.2405V89.1202H61.0885V88.2405H64.1642ZM61.9134 86.8915H63.0095V92.2178C63.0095 92.4304 63.0413 92.5905 63.1046 92.6979C63.1682 92.8031 63.2501 92.8752 63.3503 92.9142C63.453 92.9509 63.5642 92.9692 63.6838 92.9692C63.7719 92.9692 63.8488 92.9631 63.9148 92.9508C63.9808 92.9388 64.0321 92.9289 64.0688 92.9217L64.2667 93.827C64.2032 93.8515 64.1127 93.8759 63.9954 93.9004C63.8782 93.9271 63.7316 93.9418 63.5556 93.9444C63.2672 93.9492 62.9983 93.8979 62.7492 93.7904C62.4998 93.6828 62.2982 93.5167 62.1443 93.2918C61.9903 93.067 61.9134 92.7847 61.9134 92.445V86.8915ZM65.583 93.871V88.2405H66.679V93.871H65.583ZM66.1364 87.3718C65.9459 87.3718 65.7822 87.3083 65.6453 87.1812C65.5109 87.0517 65.4437 86.8976 65.4437 86.7192C65.4437 86.5384 65.5109 86.3844 65.6453 86.2573C65.7822 86.1278 65.9459 86.0631 66.1364 86.0631C66.3271 86.0631 66.4896 86.1278 66.624 86.2573C66.7609 86.3844 66.8293 86.5384 66.8293 86.7192C66.8293 86.8976 66.7609 87.0517 66.624 87.1812C66.4896 87.3083 66.3271 87.3718 66.1364 87.3718ZM73.1767 88.2405L71.135 93.871H69.9619L67.9164 88.2405H69.0932L70.5192 92.5734H70.5777L72 88.2405H73.1767ZM76.6483 93.9847C76.0937 93.9847 75.6159 93.8662 75.2151 93.6291C74.8167 93.3896 74.5088 93.0536 74.2914 92.621C74.0763 92.186 73.9688 91.6765 73.9688 91.0925C73.9688 90.5157 74.0763 90.0073 74.2914 89.5675C74.5088 89.1276 74.8119 88.7842 75.2004 88.5375C75.5914 88.2907 76.0483 88.1671 76.5714 88.1671C76.8892 88.1671 77.1971 88.2197 77.4951 88.3249C77.7933 88.4299 78.0609 88.5949 78.2979 88.8197C78.535 89.0446 78.7219 89.3365 78.8588 89.6959C78.9956 90.0526 79.064 90.4863 79.064 90.9971V91.3857H74.5882V90.5646H77.99C77.99 90.2762 77.9314 90.0209 77.814 89.7984C77.6967 89.5736 77.5317 89.3965 77.3192 89.267C77.109 89.1375 76.8622 89.0726 76.5787 89.0726C76.2708 89.0726 76.0021 89.1484 75.7722 89.2999C75.545 89.4489 75.369 89.6444 75.2445 89.8863C75.1222 90.1258 75.0611 90.3862 75.0611 90.6671V91.3088C75.0611 91.685 75.1271 92.0052 75.2592 92.2691C75.3935 92.5331 75.5804 92.7347 75.82 92.8739C76.0595 93.0109 76.3392 93.0792 76.6593 93.0792C76.8671 93.0792 77.0564 93.0499 77.2275 92.9912C77.3987 92.9302 77.5464 92.8397 77.6711 92.72C77.7958 92.6002 77.8911 92.4525 77.9571 92.2765L78.9945 92.4634C78.9113 92.7689 78.7622 93.0365 78.5472 93.2662C78.3346 93.4934 78.0671 93.6707 77.7445 93.7976C77.4243 93.9223 77.059 93.9847 76.6483 93.9847ZM90.0342 90.1173C90.0342 90.9189 89.8875 91.6081 89.5943 92.1847C89.3011 92.7591 88.899 93.2013 88.3882 93.5118C87.88 93.8197 87.3021 93.9736 86.6543 93.9736C86.0043 93.9736 85.424 93.8197 84.9132 93.5118C84.4048 93.2013 84.0042 92.7578 83.7108 92.1812C83.4175 91.6044 83.2709 90.9165 83.2709 90.1173C83.2709 89.3159 83.4175 88.6278 83.7108 88.0536C84.0042 87.4768 84.4048 87.0346 84.9132 86.7267C85.424 86.4162 86.0043 86.261 86.6543 86.261C87.3021 86.261 87.88 86.4162 88.3882 86.7267C88.899 87.0346 89.3011 87.4768 89.5943 88.0536C89.8875 88.6278 90.0342 89.3159 90.0342 90.1173ZM88.9124 90.1173C88.9124 89.5063 88.8135 88.992 88.6156 88.5741C88.42 88.1538 88.1513 87.836 87.8092 87.621C87.4693 87.4036 87.0845 87.2947 86.6543 87.2947C86.2219 87.2947 85.8358 87.4036 85.4961 87.621C85.1564 87.836 84.8875 88.1538 84.6896 88.5741C84.494 88.992 84.3962 89.5063 84.3962 90.1173C84.3962 90.7283 84.494 91.2439 84.6896 91.6642C84.8875 92.0821 85.1564 92.3999 85.4961 92.6173C85.8358 92.8325 86.2219 92.9399 86.6543 92.9399C87.0845 92.9399 87.4693 92.8325 87.8092 92.6173C88.1513 92.3999 88.42 92.0821 88.6156 91.6642C88.8135 91.2439 88.9124 90.7283 88.9124 90.1173ZM91.5648 93.871V88.2405H92.6242V89.1349H92.6829C92.7854 88.832 92.9664 88.5936 93.2254 88.4202C93.4869 88.2442 93.7825 88.1562 94.1125 88.1562C94.1809 88.1562 94.2616 88.1586 94.3545 88.1636C94.4498 88.1684 94.5243 88.1746 94.578 88.1818V89.2302C94.534 89.2181 94.4558 89.2046 94.3433 89.1899C94.2309 89.1728 94.1187 89.1642 94.0063 89.1642C93.7471 89.1642 93.5163 89.2192 93.3133 89.3292C93.113 89.4368 92.9542 89.587 92.8369 89.78C92.7195 89.9707 92.6609 90.1883 92.6609 90.4326V93.871H91.5648ZM97.8921 96.0997C97.4448 96.0997 97.06 96.0412 96.7374 95.9238C96.4172 95.8065 96.1558 95.6513 95.9529 95.4583C95.7501 95.2652 95.5985 95.0538 95.4983 94.8241L96.4404 94.4355C96.5064 94.5431 96.5945 94.6567 96.7043 94.7765C96.8167 94.8986 96.9684 95.0025 97.159 95.0879C97.3521 95.1736 97.6 95.2163 97.903 95.2163C98.3185 95.2163 98.6619 95.1149 98.9332 94.9121C99.2043 94.7117 99.34 94.3915 99.34 93.9517V92.8446H99.2703C99.2043 92.9644 99.109 93.0976 98.9845 93.2442C98.8622 93.3909 98.6937 93.5179 98.4785 93.6254C98.2635 93.7329 97.9837 93.7867 97.6392 93.7867C97.1943 93.7867 96.7935 93.6828 96.4367 93.475C96.0824 93.2649 95.8014 92.9558 95.5937 92.5476C95.3883 92.1371 95.2858 91.6325 95.2858 91.0338C95.2858 90.435 95.3872 89.9218 95.59 89.4942C95.7953 89.0665 96.0763 88.7391 96.4332 88.5118C96.79 88.282 97.1943 88.1671 97.6464 88.1671C97.9959 88.1671 98.2782 88.2259 98.4932 88.3431C98.7083 88.4579 98.8758 88.5925 98.9954 88.7463C99.1177 88.9004 99.2117 89.036 99.2777 89.1533H99.3583V88.2405H100.432V93.9957C100.432 94.4796 100.32 94.8767 100.095 95.187C99.8703 95.4973 99.5661 95.7271 99.1824 95.8762C98.8011 96.0252 98.3711 96.0997 97.8921 96.0997ZM97.8811 92.8776C98.1963 92.8776 98.4627 92.8042 98.6801 92.6576C98.9001 92.5086 99.0662 92.296 99.1787 92.0199C99.2935 91.7412 99.3509 91.4076 99.3509 91.0191C99.3509 90.6404 99.2948 90.3068 99.1824 90.0184C99.07 89.73 98.905 89.5052 98.6875 89.3439C98.47 89.1802 98.2013 89.0983 97.8811 89.0983C97.5511 89.0983 97.2762 89.1838 97.0562 89.3549C96.8364 89.5234 96.6701 89.7533 96.5577 90.0441C96.4477 90.3349 96.3929 90.6599 96.3929 91.0191C96.3929 91.3881 96.449 91.712 96.5614 91.9905C96.6738 92.2691 96.84 92.4867 97.06 92.6429C97.2824 92.7994 97.5561 92.8776 97.8811 92.8776ZM103.747 93.9957C103.391 93.9957 103.068 93.9297 102.78 93.7976C102.491 93.6633 102.263 93.4691 102.094 93.2149C101.928 92.9607 101.845 92.6491 101.845 92.28C101.845 91.9625 101.906 91.7009 102.028 91.4957C102.15 91.2904 102.315 91.1278 102.523 91.0081C102.731 90.8884 102.963 90.7979 103.219 90.7368C103.476 90.6757 103.738 90.6294 104.004 90.5976C104.341 90.5584 104.615 90.5267 104.825 90.5023C105.035 90.4754 105.188 90.4326 105.283 90.3739C105.379 90.3154 105.426 90.22 105.426 90.0879V90.0623C105.426 89.7423 105.336 89.4942 105.155 89.3183C104.977 89.1423 104.71 89.0542 104.356 89.0542C103.987 89.0542 103.696 89.1362 103.483 89.2999C103.273 89.4612 103.128 89.6409 103.047 89.8388L102.017 89.6041C102.139 89.262 102.318 88.9859 102.552 88.7757C102.789 88.5631 103.062 88.4091 103.37 88.3138C103.678 88.216 104.002 88.1671 104.341 88.1671C104.566 88.1671 104.804 88.1941 105.056 88.2478C105.31 88.2992 105.547 88.3944 105.767 88.5338C105.989 88.6731 106.172 88.8723 106.313 89.1313C106.455 89.388 106.526 89.7215 106.526 90.132V93.871H105.456V93.1012H105.412C105.341 93.2429 105.234 93.3823 105.093 93.5191C104.951 93.656 104.769 93.7696 104.546 93.86C104.324 93.9504 104.058 93.9957 103.747 93.9957ZM103.986 93.1159C104.289 93.1159 104.548 93.056 104.763 92.9363C104.98 92.8165 105.145 92.66 105.258 92.467C105.373 92.2715 105.43 92.0626 105.43 91.8402V91.1144C105.391 91.1536 105.315 91.1902 105.203 91.2244C105.093 91.2562 104.967 91.2842 104.825 91.3088C104.683 91.3307 104.545 91.3515 104.411 91.371C104.276 91.3881 104.164 91.4028 104.074 91.415C103.861 91.4418 103.667 91.4871 103.491 91.5507C103.317 91.6142 103.178 91.7059 103.073 91.8255C102.97 91.9428 102.919 92.0992 102.919 92.2947C102.919 92.566 103.019 92.7713 103.219 92.9105C103.42 93.0475 103.675 93.1159 103.986 93.1159ZM109.288 90.528V93.871H108.192V88.2405H109.244V89.157H109.314C109.444 88.8588 109.646 88.6192 109.922 88.4384C110.201 88.2576 110.552 88.1671 110.974 88.1671C111.358 88.1671 111.694 88.2478 111.983 88.4091C112.271 88.5679 112.494 88.805 112.653 89.1202C112.812 89.4355 112.892 89.8254 112.892 90.2896V93.871H111.796V90.4217C111.796 90.0134 111.689 89.6946 111.477 89.4649C111.264 89.2326 110.972 89.1167 110.601 89.1167C110.346 89.1167 110.12 89.1717 109.922 89.2815C109.727 89.3915 109.572 89.5528 109.457 89.7654C109.344 89.9755 109.288 90.2297 109.288 90.528ZM114.568 93.871V88.2405H115.664V93.871H114.568ZM115.122 87.3718C114.931 87.3718 114.767 87.3083 114.63 87.1812C114.496 87.0517 114.429 86.8976 114.429 86.7192C114.429 86.5384 114.496 86.3844 114.63 86.2573C114.767 86.1278 114.931 86.0631 115.122 86.0631C115.312 86.0631 115.475 86.1278 115.609 86.2573C115.746 86.3844 115.814 86.5384 115.814 86.7192C115.814 86.8976 115.746 87.0517 115.609 87.1812C115.475 87.3083 115.312 87.3718 115.122 87.3718ZM117.228 93.871V93.1196L120.278 89.2449V89.1936H117.327V88.2405H121.645V89.0396L118.712 92.8667V92.9179H121.748V93.871H117.228ZM124.886 93.9957C124.529 93.9957 124.206 93.9297 123.918 93.7976C123.629 93.6633 123.401 93.4691 123.232 93.2149C123.066 92.9607 122.983 92.6491 122.983 92.28C122.983 91.9625 123.044 91.7009 123.166 91.4957C123.289 91.2904 123.454 91.1278 123.661 91.0081C123.869 90.8884 124.101 90.7979 124.358 90.7368C124.614 90.6757 124.876 90.6294 125.142 90.5976C125.479 90.5584 125.753 90.5267 125.963 90.5023C126.174 90.4754 126.326 90.4326 126.422 90.3739C126.517 90.3154 126.564 90.22 126.564 90.0879V90.0623C126.564 89.7423 126.474 89.4942 126.293 89.3183C126.115 89.1423 125.849 89.0542 125.494 89.0542C125.125 89.0542 124.834 89.1362 124.622 89.2999C124.412 89.4612 124.266 89.6409 124.185 89.8388L123.155 89.6041C123.278 89.262 123.456 88.9859 123.691 88.7757C123.928 88.5631 124.2 88.4091 124.508 88.3138C124.816 88.216 125.14 88.1671 125.479 88.1671C125.704 88.1671 125.943 88.1941 126.194 88.2478C126.449 88.2992 126.685 88.3944 126.905 88.5338C127.128 88.6731 127.31 88.8723 127.452 89.1313C127.593 89.388 127.664 89.7215 127.664 90.132V93.871H126.594V93.1012H126.55C126.479 93.2429 126.373 93.3823 126.231 93.5191C126.089 93.656 125.907 93.7696 125.685 93.86C125.462 93.9504 125.196 93.9957 124.886 93.9957ZM125.124 93.1159C125.427 93.1159 125.686 93.056 125.901 92.9363C126.119 92.8165 126.284 92.66 126.396 92.467C126.511 92.2715 126.568 92.0626 126.568 91.8402V91.1144C126.529 91.1536 126.453 91.1902 126.341 91.2244C126.231 91.2562 126.105 91.2842 125.963 91.3088C125.822 91.3307 125.684 91.3515 125.549 91.371C125.415 91.3881 125.302 91.4028 125.212 91.415C124.999 91.4418 124.805 91.4871 124.629 91.5507C124.456 91.6142 124.316 91.7059 124.211 91.8255C124.109 91.9428 124.057 92.0992 124.057 92.2947C124.057 92.566 124.157 92.7713 124.358 92.9105C124.558 93.0475 124.814 93.1159 125.124 93.1159ZM131.959 88.2405V89.1202H128.883V88.2405H131.959ZM129.708 86.8915H130.804V92.2178C130.804 92.4304 130.836 92.5905 130.899 92.6979C130.963 92.8031 131.045 92.8752 131.145 92.9142C131.248 92.9509 131.359 92.9692 131.479 92.9692C131.567 92.9692 131.644 92.9631 131.71 92.9508C131.776 92.9388 131.827 92.9289 131.864 92.9217L132.061 93.827C131.998 93.8515 131.908 93.8759 131.79 93.9004C131.673 93.9271 131.526 93.9418 131.35 93.9444C131.062 93.9492 130.793 93.8979 130.544 93.7904C130.295 93.6828 130.093 93.5167 129.939 93.2918C129.785 93.067 129.708 92.7847 129.708 92.445V86.8915ZM133.378 93.871V88.2405H134.474V93.871H133.378ZM133.931 87.3718C133.741 87.3718 133.577 87.3083 133.44 87.1812C133.306 87.0517 133.239 86.8976 133.239 86.7192C133.239 86.5384 133.306 86.3844 133.44 86.2573C133.577 86.1278 133.741 86.0631 133.931 86.0631C134.122 86.0631 134.284 86.1278 134.419 86.2573C134.556 86.3844 134.624 86.5384 134.624 86.7192C134.624 86.8976 134.556 87.0517 134.419 87.1812C134.284 87.3083 134.122 87.3718 133.931 87.3718ZM138.526 93.9847C137.999 93.9847 137.538 93.8638 137.144 93.6218C136.751 93.3799 136.446 93.0413 136.228 92.6063C136.011 92.1713 135.902 91.6631 135.902 91.0815C135.902 90.4973 136.011 89.9867 136.228 89.5492C136.446 89.1117 136.751 88.772 137.144 88.53C137.538 88.2881 137.999 88.1671 138.526 88.1671C139.054 88.1671 139.515 88.2881 139.908 88.53C140.302 88.772 140.607 89.1117 140.825 89.5492C141.042 89.9867 141.151 90.4973 141.151 91.0815C141.151 91.6631 141.042 92.1713 140.825 92.6063C140.607 93.0413 140.302 93.3799 139.908 93.6218C139.515 93.8638 139.054 93.9847 138.526 93.9847ZM138.53 93.0646C138.872 93.0646 139.156 92.9741 139.381 92.7933C139.605 92.6125 139.772 92.3718 139.879 92.0712C139.989 91.7705 140.044 91.4394 140.044 91.0778C140.044 90.7186 139.989 90.3886 139.879 90.0879C139.772 89.785 139.605 89.5418 139.381 89.3586C139.156 89.1752 138.872 89.0836 138.53 89.0836C138.186 89.0836 137.9 89.1752 137.672 89.3586C137.448 89.5418 137.28 89.785 137.17 90.0879C137.063 90.3886 137.009 90.7186 137.009 91.0778C137.009 91.4394 137.063 91.7705 137.17 92.0712C137.28 92.3718 137.448 92.6125 137.672 92.7933C137.9 92.9741 138.186 93.0646 138.53 93.0646ZM143.677 90.528V93.871H142.581V88.2405H143.633V89.157H143.703C143.832 88.8588 144.035 88.6192 144.311 88.4384C144.59 88.2576 144.94 88.1671 145.363 88.1671C145.747 88.1671 146.083 88.2478 146.371 88.4091C146.66 88.5679 146.883 88.805 147.042 89.1202C147.201 89.4355 147.28 89.8254 147.28 90.2896V93.871H146.184V90.4217C146.184 90.0134 146.078 89.6946 145.865 89.4649C145.653 89.2326 145.361 89.1167 144.989 89.1167C144.735 89.1167 144.509 89.1717 144.311 89.2815C144.116 89.3915 143.96 89.5528 143.846 89.7654C143.733 89.9755 143.677 90.2297 143.677 90.528Z" fill="#555555"/>
</g>
</svg>
