<svg width="504" height="166" viewBox="0 0 504 166" fill="none" xmlns="http://www.w3.org/2000/svg">
<g clip-path="url(#clip0_305_50)">
<path d="M100.236 86.6713V116.858H87.9697V86.6713C87.9697 79.9193 82.4191 74.3996 75.6045 74.3996C68.8146 74.3996 63.2886 79.9193 63.2886 86.6713V116.858H50.9973V86.6713C50.9973 79.9193 45.4465 74.3996 38.6567 74.3996C31.842 74.3996 26.2912 79.9193 26.2912 86.6713V116.858H14V86.6713C14 73.1676 25.0523 62.1772 38.6319 62.1772C45.7191 62.1772 52.4098 65.2081 57.118 70.5062C61.8016 65.2081 68.5174 62.1772 75.6045 62.1772C89.1841 62.1772 100.236 73.1676 100.236 86.6713Z" fill="#222A34"/>
<path d="M321.748 62.2039V74.4015H321.004C314.016 74.4015 308.342 80.0691 308.342 86.9936V116.934H296.051V87.0182C296.051 73.342 307.251 62.2039 321.004 62.2039H321.748Z" fill="#222A34"/>
<path d="M185.482 86.7378V116.924H173.19V86.7378C173.19 79.9859 167.664 74.4662 160.874 74.4662C154.06 74.4662 148.534 79.9859 148.534 86.7378V116.924H136.243V86.7378C136.243 73.2342 147.295 62.2439 160.874 62.2439C174.429 62.2439 185.482 73.2342 185.482 86.7378Z" fill="#222A34"/>
<path d="M207.906 75.0339V89.5232C207.906 97.9754 214.819 104.826 223.295 104.826H224.037V117.048H223.295C208.029 117.048 195.615 104.703 195.615 89.5232V49.9485H207.906V62.8115H224.037V75.0339H207.906Z" fill="#222A34"/>
<path d="M124.372 64.1963H112.081V116.955H124.372V64.1963Z" fill="#222A34"/>
<path d="M125.152 53.8853C125.152 57.6917 122.031 60.7949 118.228 60.7949C114.399 60.7949 111.304 57.6917 111.304 53.8853C111.304 50.079 114.424 47 118.228 47C122.055 47 125.152 50.079 125.152 53.8853Z" fill="#222A34"/>
<path d="M430.013 100.842C430.013 110.231 421.119 117.574 409.768 117.574C398.59 117.574 389.845 110.231 389.845 100.842V100.473H401.392V100.842C401.392 103.355 404.762 106.017 409.768 106.017C414.723 106.017 418.466 103.775 418.466 100.842C418.466 98.1069 414.673 95.9385 409.446 95.6676C398.072 95.076 389.497 87.9054 389.497 78.9357C389.497 69.5471 398.394 62.2039 409.768 62.2039C420.993 62.2039 429.445 69.3992 429.445 78.9357V79.3052H417.894V78.9357C417.894 76.4469 414.774 73.7608 409.742 73.7608C404.859 73.7608 401.019 76.0278 401.019 78.9357C401.019 81.5231 405.058 83.8642 410.018 84.1105C421.413 84.7267 430.013 91.922 430.013 100.842Z" fill="#222A34"/>
<path d="M451.402 75.0339V89.5232C451.402 97.9754 458.316 104.826 466.79 104.826H467.532V117.048H466.79C451.525 117.048 439.11 104.703 439.11 89.5232V49.9485H451.402V62.8115H467.532V75.0339H451.402Z" fill="#222A34"/>
<path d="M286.113 83.0488C285.865 82.0878 285.592 81.2253 285.296 80.4614C284.999 79.6729 284.676 78.8844 284.28 78.0958L284.13 77.7509H284.107C283.264 76.0014 282.222 74.375 281.033 72.8719C280.364 72.0587 279.721 71.3193 279.052 70.6293C275.482 67.0071 271.022 64.4197 266.14 63.1629L265.942 63.0397L265.892 63.089C265.05 62.8672 264.207 62.6947 263.415 62.5715C260.564 62.1526 257.789 62.1526 254.915 62.5715C254.071 62.7194 253.205 62.8919 252.313 63.1136L252.213 63.1383C251.892 63.2122 251.545 63.3108 251.197 63.4093C250.603 63.5818 250.007 63.8036 249.241 64.0747C248.943 64.1979 248.645 64.3211 248.347 64.4196C247.579 64.74 246.787 65.1096 245.894 65.6024C245.598 65.7749 245.3 65.9475 244.952 66.1446C244.21 66.5881 243.64 66.9578 243.119 67.3273C241.93 68.1652 240.815 69.1016 239.799 70.0873C239.526 70.3337 239.253 70.6047 239.03 70.8512C238.782 71.0976 238.559 71.3686 238.287 71.6397L238.189 71.7383V71.7629C238.064 71.9108 237.941 72.0587 237.841 72.1818L237.518 72.5761V72.6007C237.32 72.8472 237.122 73.0689 236.949 73.34L236.849 73.4386V73.4632C236.701 73.6358 236.577 73.8081 236.454 74.0053L236.256 74.3257C236.056 74.5966 235.908 74.8677 235.71 75.1389L235.66 75.2128C235.487 75.4837 235.313 75.7549 235.139 76.0507L234.991 76.3216C234.842 76.5434 234.718 76.7652 234.594 76.9871L234.546 77.0855C234.446 77.3073 234.323 77.5291 234.223 77.7509L234.075 78.0712C233.9 78.4409 233.727 78.8104 233.554 79.2048L233.504 79.2787C233.331 79.6729 233.182 80.0426 233.033 80.4368L233.009 80.4861C232.711 81.25 232.463 82.0878 232.215 83.0242C231.621 85.2668 231.324 87.583 231.324 89.9238C231.324 92.265 231.621 94.5812 232.215 96.8238C232.415 97.6367 232.686 98.4992 233.033 99.4356C233.95 101.974 235.264 104.339 236.874 106.483C237.47 107.272 238.114 108.036 238.807 108.775C239.03 109.021 239.278 109.243 239.501 109.489C242.053 112.028 245.027 114.024 248.347 115.453C249.091 115.773 249.86 116.044 250.578 116.266C250.826 116.365 251.049 116.439 251.272 116.488L251.422 116.537C251.693 116.611 251.965 116.71 252.238 116.759C252.859 116.931 253.503 117.079 254.146 117.202C255.806 117.498 257.492 117.646 259.177 117.646C260.093 117.646 261.06 117.597 262.026 117.498C262.497 117.449 262.944 117.4 263.488 117.326C263.911 117.252 264.307 117.178 264.777 117.104C265.248 117.005 265.694 116.907 266.115 116.784C266.562 116.685 267.008 116.562 267.429 116.439C267.875 116.291 268.295 116.143 268.741 115.995C269.56 115.699 270.403 115.354 271.22 114.96C271.641 114.763 272.038 114.566 272.409 114.344C273.103 113.95 273.797 113.555 274.467 113.136L274.715 112.964C274.863 112.866 275.011 112.767 275.136 112.668C275.657 112.323 276.152 111.954 276.598 111.56L277.069 111.165C277.515 110.771 277.985 110.352 278.431 109.933C278.629 109.761 278.827 109.588 279.002 109.366C279.2 109.169 279.423 108.947 279.596 108.75C279.793 108.553 279.993 108.331 280.166 108.11C280.512 107.715 280.86 107.296 281.208 106.853L281.356 106.754V106.607C281.504 106.409 281.653 106.212 281.776 106.015C281.951 105.793 282.124 105.547 282.272 105.325C282.372 105.202 282.445 105.079 282.52 104.956C283.239 103.847 283.907 102.688 284.453 101.506H270.056L270.031 101.53L269.833 101.678C269.733 101.777 269.585 101.9 269.437 102.023C269.287 102.171 269.139 102.269 269.014 102.368L268.816 102.516C268.766 102.54 268.741 102.565 268.668 102.615C268.197 102.96 267.752 103.255 267.354 103.501C267.156 103.6 266.958 103.723 266.785 103.822C266.735 103.847 266.685 103.871 266.61 103.921C266.437 104.019 266.264 104.118 266.067 104.192L265.844 104.29C265.619 104.389 265.396 104.487 265.223 104.561C265.148 104.586 265.075 104.61 265.05 104.635C264.925 104.684 264.802 104.734 264.653 104.783L264.529 104.832C264.43 104.882 264.356 104.906 264.232 104.931C264.134 104.956 264.009 105.005 263.836 105.029C263.711 105.079 263.588 105.103 263.39 105.177L262.671 105.374C262.349 105.448 262.001 105.522 261.655 105.571L261.555 105.596C261.407 105.621 261.259 105.646 261.085 105.646C260.986 105.67 260.887 105.67 260.763 105.695C259.995 105.769 259.177 105.793 258.36 105.769C258.335 105.769 258.285 105.769 258.21 105.744C257.987 105.719 257.764 105.719 257.517 105.695C257.269 105.67 257.046 105.646 256.823 105.621C256.798 105.596 256.748 105.596 256.675 105.596L255.931 105.448C255.634 105.399 255.336 105.3 255.038 105.251L254.84 105.202C254.692 105.153 254.544 105.128 254.394 105.054C254.221 105.005 254.048 104.931 253.848 104.882L253.626 104.808C253.403 104.734 253.155 104.635 252.907 104.512C252.659 104.413 252.436 104.315 252.213 104.192C251.99 104.093 251.768 103.97 251.52 103.847L251.397 103.797C251.222 103.699 251.049 103.6 250.826 103.452C250.653 103.354 250.503 103.255 250.33 103.132L250.157 103.009C250.107 102.96 250.007 102.91 249.934 102.836C249.612 102.615 249.289 102.368 248.968 102.097C248.793 101.949 248.62 101.801 248.397 101.629C248.149 101.407 247.927 101.161 247.679 100.914C247.233 100.471 246.86 100.027 246.514 99.5588C246.464 99.5095 246.414 99.4603 246.341 99.3371C246.291 99.2878 246.241 99.2386 246.191 99.1647L246.141 99.0661C246.044 98.9183 245.969 98.8195 245.871 98.6717L245.771 98.5239C245.598 98.2283 245.423 97.9573 245.25 97.6864C244.929 97.1441 244.631 96.5279 244.358 95.8628C244.333 95.8382 244.333 95.8135 244.333 95.7886H286.311L286.411 95.222C286.461 94.951 286.511 94.6797 286.559 94.4334L286.609 94.0639C286.684 93.5955 286.759 93.1029 286.782 92.5852C286.882 91.7473 286.932 90.8109 286.932 89.8745C286.981 87.6076 286.684 85.2914 286.113 83.0488ZM243.838 85.5377C243.863 85.4392 243.888 85.3403 243.913 85.2422L244.011 84.9708C244.036 84.8723 244.061 84.7738 244.111 84.6752C244.283 84.133 244.531 83.591 244.829 82.9749C244.879 82.8763 244.929 82.7779 244.977 82.6793C245.002 82.63 245.027 82.5807 245.052 82.5314L245.2 82.2603C245.225 82.211 245.25 82.1617 245.275 82.1124L245.375 81.9401C245.423 81.8661 245.473 81.7922 245.523 81.7429L245.573 81.6443C245.598 81.595 245.623 81.5704 245.623 81.5457C245.721 81.3732 245.821 81.2253 245.969 81.0283C246.118 80.8311 246.241 80.634 246.414 80.4121C246.489 80.2644 246.589 80.1658 246.712 80.018C246.762 79.9687 246.787 79.9194 246.885 79.8208C247.06 79.6236 247.208 79.4266 247.406 79.2541C247.804 78.8104 248.149 78.4902 248.472 78.1944C248.818 77.874 249.241 77.5291 249.637 77.2334C249.86 77.0855 250.082 76.9131 250.305 76.7652C250.701 76.5188 251.149 76.2476 251.62 76.0014L251.718 75.9274C251.867 75.8535 252.015 75.7549 252.188 75.681L252.288 75.6563L252.363 75.5823C252.759 75.3852 253.18 75.2128 253.626 75.0403L253.726 74.991C253.973 74.9171 254.196 74.8185 254.444 74.7445C254.567 74.6952 254.692 74.6706 254.84 74.6459C255.015 74.5966 255.188 74.5475 255.386 74.4982C255.559 74.449 255.733 74.3997 255.956 74.375C256.252 74.3011 256.55 74.2271 256.923 74.2025C257.121 74.1778 257.344 74.1532 257.542 74.1285C257.814 74.1039 258.062 74.0792 258.36 74.0546C258.855 74.0299 259.351 74.0299 259.97 74.0546L260.07 74.0792C260.316 74.1039 260.54 74.1039 260.788 74.1285C261.457 74.2025 262.001 74.3011 262.597 74.4243C262.696 74.449 262.82 74.4736 262.919 74.4982L263.167 74.5475C263.29 74.572 263.415 74.5966 263.563 74.6459C263.663 74.6706 263.786 74.7199 263.886 74.7445L264.207 74.8431C264.307 74.8677 264.405 74.9171 264.505 74.9417C264.604 74.991 264.727 75.0403 264.852 75.0896L265.396 75.2868C265.596 75.3852 265.819 75.4837 266.042 75.5823C266.314 75.7056 266.562 75.8288 266.808 75.9767C266.983 76.0753 267.156 76.1739 267.354 76.2969C267.454 76.3462 267.552 76.3955 267.677 76.4941C267.825 76.5927 267.95 76.6667 268.098 76.7899C268.222 76.8638 268.345 76.9624 268.445 77.0362C268.518 77.0855 268.593 77.1347 268.693 77.2334C268.891 77.4059 269.114 77.5538 269.312 77.7263L269.46 77.8249C269.51 77.8495 269.535 77.874 269.56 77.9233L269.635 77.9973C269.956 78.2684 270.203 78.4902 270.451 78.7365C270.749 79.0322 271.047 79.328 271.393 79.7468C271.418 79.7715 271.468 79.8208 271.493 79.8454L271.616 79.9933C271.716 80.0919 271.791 80.2151 271.864 80.3382L271.964 80.4861C272.111 80.6832 272.261 80.8804 272.409 81.1269C272.534 81.2746 272.632 81.4471 272.732 81.6443C272.782 81.6936 272.807 81.7429 272.88 81.8661C272.93 81.9154 272.955 81.9647 272.98 82.0385L273.03 82.1371C273.128 82.3096 273.228 82.4575 273.301 82.6054L273.376 82.7532C273.426 82.8517 273.476 82.9502 273.549 83.1474C273.574 83.1967 273.599 83.2462 273.599 83.2708C273.699 83.4679 273.797 83.6896 273.897 83.9359C273.971 84.1083 274.044 84.2565 274.094 84.4043L274.144 84.5521C274.194 84.6999 274.244 84.8477 274.317 85.0201C274.367 85.1929 274.442 85.365 274.492 85.5377H243.838Z" fill="#222A34"/>
<path d="M382.138 83.0488C381.892 82.0878 381.62 81.2253 381.32 80.4614C381.023 79.6729 380.701 78.8844 380.303 78.0958L380.158 77.7509H380.133C379.289 76.0014 378.247 74.375 377.059 72.8719C376.39 72.0587 375.745 71.3193 375.076 70.6293C371.508 67.0071 367.048 64.4197 362.166 63.1629L361.968 63.0397L361.918 63.089C361.075 62.8672 360.233 62.6947 359.44 62.5715C356.59 62.1526 353.815 62.1526 350.941 62.5715C350.098 62.7194 349.231 62.8919 348.338 63.1136L348.24 63.1383C347.917 63.2122 347.571 63.3108 347.223 63.4093C346.628 63.5818 346.034 63.8036 345.265 64.0747C344.968 64.1979 344.672 64.3211 344.374 64.4196C343.605 64.74 342.812 65.1096 341.92 65.6024C341.622 65.7749 341.326 65.9475 340.979 66.1446C340.235 66.5881 339.664 66.9578 339.146 67.3273C337.956 68.1652 336.84 69.1016 335.823 70.0873C335.552 70.3337 335.28 70.6047 335.057 70.8512C334.809 71.0976 334.586 71.3686 334.313 71.6397L334.213 71.7383V71.7629C334.09 71.9108 333.965 72.0587 333.867 72.1818L333.545 72.5761V72.6007C333.347 72.8472 333.149 73.0689 332.974 73.34L332.876 73.4386V73.4632C332.726 73.6358 332.603 73.8081 332.478 74.0053L332.28 74.3257C332.082 74.5966 331.934 74.8677 331.735 75.1389L331.687 75.2128C331.512 75.4837 331.339 75.7549 331.166 76.0507L331.016 76.3216C330.868 76.5434 330.745 76.7652 330.62 76.9871L330.57 77.0855C330.472 77.3073 330.347 77.5291 330.249 77.7509L330.099 78.0712C329.926 78.4409 329.754 78.8104 329.579 79.2048L329.531 79.2787C329.356 79.6729 329.208 80.0426 329.06 80.4368L329.035 80.4861C328.737 81.25 328.489 82.0878 328.241 83.0242C327.646 85.2668 327.35 87.583 327.35 89.9238C327.35 92.265 327.646 94.5812 328.241 96.8238C328.439 97.6367 328.712 98.4992 329.06 99.4356C329.976 101.974 331.289 104.339 332.901 106.483C333.495 107.272 334.138 108.036 334.834 108.775C335.057 109.021 335.305 109.243 335.528 109.489C338.079 112.028 341.054 114.024 344.374 115.453C345.117 115.773 345.886 116.044 346.605 116.266C346.852 116.365 347.075 116.439 347.298 116.488L347.446 116.537C347.719 116.611 347.992 116.71 348.265 116.759C348.884 116.931 349.527 117.079 350.173 117.202C351.833 117.498 353.518 117.646 355.203 117.646C356.119 117.646 357.086 117.597 358.052 117.498C358.523 117.449 358.969 117.4 359.514 117.326C359.935 117.252 360.331 117.178 360.804 117.104C361.275 117.005 361.72 116.907 362.141 116.784C362.587 116.685 363.033 116.562 363.453 116.439C363.901 116.291 364.322 116.143 364.768 115.995C365.586 115.699 366.428 115.354 367.246 114.96C367.667 114.763 368.063 114.566 368.436 114.344C369.129 113.95 369.823 113.555 370.492 113.136L370.74 112.964C370.889 112.866 371.037 112.767 371.16 112.668C371.681 112.323 372.177 111.954 372.623 111.56L373.093 111.165C373.541 110.771 374.012 110.352 374.458 109.933C374.655 109.761 374.853 109.588 375.026 109.366C375.226 109.169 375.449 108.947 375.622 108.75C375.82 108.553 376.017 108.331 376.191 108.11C376.538 107.715 376.886 107.296 377.233 106.853L377.382 106.754V106.607C377.53 106.409 377.678 106.212 377.802 106.015C377.975 105.793 378.149 105.547 378.297 105.325C378.395 105.202 378.471 105.079 378.547 104.956C379.264 103.847 379.934 102.688 380.48 101.506H366.082L366.057 101.53L365.857 101.678C365.759 101.777 365.611 101.9 365.461 102.023C365.313 102.171 365.164 102.269 365.041 102.368L364.843 102.516C364.793 102.54 364.768 102.565 364.693 102.615C364.222 102.96 363.776 103.255 363.38 103.501C363.183 103.6 362.983 103.723 362.81 103.822C362.76 103.847 362.712 103.871 362.637 103.921C362.464 104.019 362.289 104.118 362.091 104.192L361.868 104.29C361.645 104.389 361.422 104.487 361.25 104.561C361.175 104.586 361.1 104.61 361.075 104.635C360.952 104.684 360.827 104.734 360.679 104.783L360.556 104.832C360.456 104.882 360.381 104.906 360.258 104.931C360.158 104.956 360.035 105.005 359.861 105.029C359.737 105.079 359.613 105.103 359.415 105.177L358.696 105.35C358.375 105.424 358.027 105.497 357.681 105.547L357.581 105.571C357.434 105.596 357.284 105.621 357.111 105.621C357.011 105.646 356.913 105.646 356.788 105.67C356.02 105.744 355.203 105.769 354.385 105.744C354.36 105.744 354.311 105.744 354.236 105.719C354.013 105.695 353.791 105.695 353.543 105.67C353.295 105.646 353.072 105.621 352.849 105.596C352.824 105.571 352.774 105.571 352.7 105.571L351.956 105.424C351.66 105.374 351.362 105.276 351.064 105.226L350.866 105.177C350.717 105.128 350.569 105.103 350.42 105.029C350.246 104.98 350.073 104.906 349.875 104.857L349.652 104.783C349.429 104.709 349.181 104.61 348.933 104.487C348.686 104.389 348.463 104.29 348.24 104.167C348.017 104.068 347.794 103.945 347.546 103.822L347.421 103.772C347.248 103.674 347.075 103.575 346.852 103.428C346.678 103.329 346.53 103.231 346.357 103.107L346.182 102.984C346.134 102.935 346.034 102.886 345.959 102.811C345.638 102.59 345.315 102.343 344.993 102.072C344.82 101.924 344.647 101.777 344.424 101.604C344.176 101.382 343.953 101.136 343.705 100.89C343.257 100.446 342.887 100.003 342.539 99.5342C342.491 99.4849 342.441 99.4356 342.366 99.3125C342.316 99.2632 342.268 99.2139 342.218 99.14L342.168 99.0415C342.068 98.8937 341.995 98.7948 341.895 98.647L341.797 98.4992C341.622 98.2036 341.449 97.9323 341.276 97.6617C340.954 97.1194 340.656 96.5033 340.383 95.8382C340.36 95.8135 340.36 95.7885 340.36 95.7639H382.337L382.438 95.1974C382.486 94.9264 382.536 94.6551 382.587 94.4088L382.634 94.0393C382.71 93.5709 382.757 93.0782 382.808 92.5606C382.909 91.7227 382.956 90.7863 382.956 89.8499C383.007 87.6076 382.71 85.2914 382.138 83.0488ZM339.864 85.5377C339.889 85.4392 339.912 85.3403 339.937 85.2422L340.037 84.9708C340.062 84.8723 340.087 84.7738 340.135 84.6752C340.31 84.133 340.558 83.591 340.854 82.9749C340.904 82.8763 340.954 82.7779 341.004 82.6793C341.029 82.63 341.054 82.5807 341.079 82.5314L341.227 82.2603C341.252 82.211 341.277 82.1617 341.301 82.1124L341.399 81.9401C341.449 81.8661 341.499 81.7922 341.549 81.7429L341.597 81.6443C341.622 81.595 341.647 81.5704 341.647 81.5457C341.747 81.3732 341.845 81.2253 341.995 81.0283C342.143 80.8311 342.268 80.634 342.441 80.4121C342.516 80.2644 342.614 80.1658 342.739 80.018C342.787 79.9687 342.812 79.9194 342.912 79.8208C343.085 79.6236 343.234 79.4266 343.432 79.2541C343.828 78.8104 344.176 78.4902 344.497 78.1944C344.845 77.874 345.265 77.5291 345.663 77.2334C345.886 77.0855 346.109 76.9131 346.332 76.7652C346.728 76.5188 347.173 76.2476 347.644 76.0014L347.744 75.9274C347.892 75.8535 348.042 75.7549 348.215 75.681L348.313 75.6563L348.388 75.5823C348.785 75.3852 349.206 75.2128 349.652 75.0403L349.75 74.991C349.998 74.9171 350.223 74.8185 350.469 74.7445C350.594 74.6952 350.717 74.6706 350.866 74.6459C351.039 74.5966 351.212 74.5475 351.412 74.4982C351.585 74.449 351.758 74.3997 351.981 74.375C352.279 74.3011 352.576 74.2271 352.947 74.2025C353.145 74.1778 353.368 74.1532 353.568 74.1285C353.839 74.1039 354.087 74.0792 354.385 74.0546C354.88 74.0299 355.376 74.0299 355.996 74.0546L356.095 74.0792C356.342 74.1039 356.565 74.1039 356.813 74.1285C357.482 74.2025 358.027 74.3011 358.623 74.4243C358.721 74.449 358.846 74.4736 358.944 74.4982L359.192 74.5475C359.317 74.572 359.44 74.5966 359.589 74.6459C359.687 74.6706 359.812 74.7199 359.91 74.7445L360.233 74.8431C360.331 74.8677 360.431 74.9171 360.531 74.9417C360.629 74.991 360.754 75.0403 360.877 75.0896L361.422 75.2868C361.62 75.3852 361.843 75.4837 362.066 75.5823C362.339 75.7056 362.587 75.8288 362.835 75.9767C363.008 76.0753 363.183 76.1739 363.38 76.2969C363.478 76.3462 363.578 76.3955 363.701 76.4941C363.851 76.5927 363.974 76.6667 364.124 76.7899C364.247 76.8638 364.372 76.9624 364.47 77.0362C364.545 77.0855 364.62 77.1347 364.718 77.2334C364.916 77.4059 365.139 77.5538 365.338 77.7263L365.486 77.8249C365.536 77.8495 365.561 77.874 365.586 77.9233L365.659 77.9973C365.982 78.2684 366.23 78.4902 366.478 78.7365C366.776 79.0322 367.072 79.328 367.419 79.7468C367.444 79.7715 367.494 79.8208 367.519 79.8454L367.642 79.9933C367.742 80.0919 367.815 80.2151 367.89 80.3382L367.99 80.4861C368.138 80.6832 368.286 80.8804 368.436 81.1269C368.559 81.2746 368.659 81.4471 368.757 81.6443C368.807 81.6936 368.832 81.7429 368.907 81.8661C368.956 81.9154 368.981 81.9647 369.004 82.0385L369.054 82.1371C369.154 82.3096 369.252 82.4575 369.327 82.6054L369.402 82.7532C369.452 82.8517 369.5 82.9502 369.575 83.1474C369.6 83.1967 369.625 83.2462 369.625 83.2708C369.723 83.4679 369.823 83.6896 369.923 83.9359C369.996 84.1083 370.071 84.2565 370.121 84.4043L370.171 84.5521C370.219 84.6999 370.269 84.8477 370.344 85.0201C370.394 85.1929 370.467 85.365 370.517 85.5377H339.912H339.864Z" fill="#222A34"/>
<path d="M489.761 110.767C489.761 114.623 486.59 117.789 482.713 117.789C478.833 117.789 475.662 114.647 475.662 110.767C475.662 106.911 478.833 103.757 482.713 103.757C486.59 103.757 489.761 106.887 489.761 110.767Z" fill="#222A34"/>
</g>
<defs>
<clipPath id="clip0_305_50">
<rect width="476" height="71" fill="white" transform="translate(14 47)"/>
</clipPath>
</defs>
</svg>
