<svg width="504" height="166" viewBox="0 0 504 166" fill="none" xmlns="http://www.w3.org/2000/svg">
<path fill-rule="evenodd" clip-rule="evenodd" d="M288.279 108.376C281.706 109.437 278.346 114.292 278.346 122.836C278.346 131.432 282.822 137.181 289.684 137.181C292.877 137.181 295.779 136.12 301.877 133.129V140.082C294.557 143.439 290.248 144.478 284.352 144.478C277.967 144.478 273.475 142.782 269.806 139.044C266.047 135.283 264.167 130.316 264.167 124.786C264.167 112.483 273.275 104.158 286.579 104.158C295.415 104.158 301.493 108.195 301.493 114.124C301.493 117.942 298.665 120.569 294.467 120.569C292.313 120.569 290.543 120.005 288.279 118.69V108.376Z" fill="#1A1919"/>
<path fill-rule="evenodd" clip-rule="evenodd" d="M255.845 124.786C261.738 117.357 263.819 114.361 263.819 110.714C263.819 107.082 260.936 104.158 257.085 104.158C254.713 104.158 252.577 105.278 251.535 106.442V121.575L241.879 134.44V105.11H232.699L217.439 130.409V105.11H212.164L198.311 108.487V112.028L205.867 112.794V143.821H215.634L230.27 119.768V143.821H240.966L255.845 124.786Z" fill="#1A1919"/>
<path fill-rule="evenodd" clip-rule="evenodd" d="M169.143 155.998L175.477 157.406L175.477 161H150.632V157.406L156.294 155.998V112.593H150V108.871L165.2 104.254H169.143V109.437C176.262 105.202 178.708 104.452 182.359 104.452C190.792 104.452 197.015 112.229 197.015 122.997C197.015 135.446 188.71 143.821 175.624 143.821C174.145 143.821 171.682 143.731 169.143 143.439V155.998ZM169.143 139.044C170.184 139.093 170.639 139.093 171.296 139.093C179.164 139.093 183.38 134.188 183.38 124.786C183.38 116.826 179.93 112.593 173.562 112.593C172.502 112.593 171.389 112.722 169.143 112.995V139.044Z" fill="#1A1919"/>
<path fill-rule="evenodd" clip-rule="evenodd" d="M344.568 72.557H354.216V53.5398H344.568V72.557Z" fill="#E25F91"/>
<path fill-rule="evenodd" clip-rule="evenodd" d="M317.868 25.0044H325.331V13.4307H317.868V25.0044Z" fill="#F1AE7E"/>
<path fill-rule="evenodd" clip-rule="evenodd" d="M279.937 13.4305H317.868V6H279.937V13.4305Z" fill="#EB8C3A"/>
<path fill-rule="evenodd" clip-rule="evenodd" d="M279.937 53.5399V13.4307H317.868V25.0044H279.937V53.5399Z" fill="#E46C2F"/>
<path fill-rule="evenodd" clip-rule="evenodd" d="M325.331 53.5399H344.568V25.0044H325.331V53.5399Z" fill="#F3B235"/>
<path fill-rule="evenodd" clip-rule="evenodd" d="M325.331 72.557H344.568V53.5398H325.331V72.557Z" fill="#DE4D2F"/>
<path fill-rule="evenodd" clip-rule="evenodd" d="M317.868 53.5399H325.331V25.0044H317.868V53.5399Z" fill="#E98430"/>
<path fill-rule="evenodd" clip-rule="evenodd" d="M317.868 72.557H325.331V53.5398H317.868V72.557Z" fill="#DC402D"/>
<path fill-rule="evenodd" clip-rule="evenodd" d="M317.868 53.5399H303.655V44.0151H279.937V53.5399V25.0044H317.868V53.5399Z" fill="#E0592A"/>
<path fill-rule="evenodd" clip-rule="evenodd" d="M303.655 72.557H317.868V53.5398H303.655V72.557Z" fill="#DA332A"/>
<path fill-rule="evenodd" clip-rule="evenodd" d="M279.937 53.54H303.655V44.0151H279.937V53.54Z" fill="#B3452B"/>
<path fill-rule="evenodd" clip-rule="evenodd" d="M279.937 72.557H303.655V53.5398H279.937V72.557Z" fill="#B12E2A"/>
<path fill-rule="evenodd" clip-rule="evenodd" d="M241.901 82.0659H279.936V72.5569H241.901V82.0659Z" fill="#B02E2A"/>
</svg>
