<svg width="504" height="166" viewBox="0 0 504 166" fill="none" xmlns="http://www.w3.org/2000/svg">
<path d="M132.099 130.356H155.119L170.912 67.7661L187.241 130.356H210.261L236.36 36.1345H216.016L198.35 104.916L180.549 36.1345H162.481L144.144 104.916L126.879 36L106 36.1345L132.099 130.356Z" fill="#161D25"/>
<path d="M270.881 130.977C289.383 130.977 301.403 120.214 303.563 106.76H284.792C283.171 113.218 277.769 116.581 270.071 116.581C260.482 116.581 254.135 110.661 253.73 100.84V99.8986H304.104C304.509 97.7459 304.644 95.4586 304.644 93.4407C304.374 73.1253 290.329 60.2098 269.531 60.2098C248.058 60.2098 233.877 74.2017 233.877 95.7277C233.877 117.119 247.787 130.977 270.881 130.977ZM254.135 87.5209C255.215 79.3142 261.428 74.3364 269.666 74.3364C278.309 74.3364 284.116 79.0451 285.467 87.5209H254.135Z" fill="#161D25"/>
<path d="M389.248 114.302C384.44 114.302 382.568 112.279 382.568 107.422V77.0678H398.198V61.0138H382.568V41.5869H363.734V110.525C363.734 123.746 370.28 130.356 383.37 130.356H399V114.302H389.248ZM331.675 61.0138H314.576V130.356H333.411V96.3593C333.411 85.8367 337.686 78.2818 348.907 78.2818H356.387V61.0138H353.181C342.495 61.0138 337.152 65.1958 333.411 71.4016L331.675 61.0138Z" fill="#161D25"/>
</svg>
